<?xml version="1.0" encoding="iso-8859-1"?>
<!-- Generator: Adobe Illustrator 13.0.0, SVG Export Plug-In . SVG Version: 6.00 Build 14948)  -->
<!DOCTYPE svg PUBLIC "-//W3C//DTD SVG 1.1//EN" "http://www.w3.org/Graphics/SVG/1.1/DTD/svg11.dtd">
<svg version="1.1" id="Layer_1" xmlns="http://www.w3.org/2000/svg" xmlns:xlink="http://www.w3.org/1999/xlink" x="0px" y="0px"
	 width="300px" height="150px" viewBox="0 0 300 150" style="enable-background:new 0 0 300 150;" xml:space="preserve">
<g>
	<g>
		<path style="fill:#FFDE23;" d="M274.52,115.444l16.391-75.431L150.363,6.222L9.69,40.014l16.453,75.431l124.22,29.426
			L274.52,115.444z"/>
		<polyline style="fill:none;stroke:#FEC02E;stroke-width:6.8027;stroke-linecap:round;stroke-linejoin:round;" points="
			274.52,115.444 150.363,144.87 26.143,115.444 9.69,40.014 150.363,6.222 290.91,40.014 274.52,115.444 		"/>
	</g>
	<g>
		<path style="fill:#D5AC62;" d="M116.002,89.183c1.139-3.354,1.582-7.213,1.392-11.58l-13.478,1.267
			c0.063,1.012-0.064,2.088-0.317,3.163l-0.57,2.025c-0.252,0.949-0.696,1.519-1.266,1.709c-0.695,0.126-1.265-0.253-1.835-1.329
			c-0.759-1.646-1.266-4.114-1.582-7.341l19.174-1.708c-0.316-6.138-1.012-11.138-2.151-15.125c-0.95-3.29-2.342-6.265-4.114-8.732
			c-1.266-1.772-3.101-3.292-5.378-4.303c-2.215-1.076-4.683-1.582-7.151-1.582c-5.948,0-10.378,2.848-13.289,8.353
			c-2.658,5.189-3.607,12.213-2.784,21.199c0.443,5.379,1.519,9.999,2.974,13.796c1.582,3.86,3.544,6.833,6.012,8.859
			c2.911,2.404,6.328,3.479,10.251,3.227c3.734-0.189,6.898-1.582,9.429-4.05C113.47,95.005,114.989,92.411,116.002,89.183z
			 M102.396,65.58l-5.505,0.443c0-1.899,0.189-3.607,0.759-5.316c0.57-1.519,1.012-2.341,1.519-2.404
			C100.498,58.239,101.637,60.644,102.396,65.58z"/>
	</g>
	<g>
		<path style="fill:#D5AC62;" d="M236.932,40.521c-1.646,1.708-2.532,3.86-2.532,6.391c0,1.772,0.443,3.354,1.393,4.683
			c0.948,1.329,2.341,2.341,4.24,3.101l-3.354,6.771c-0.381,0.949-0.253,1.708,0.505,2.341c0.761,0.569,1.582,0.569,2.468-0.126
			l5.063-4.937c3.733-3.986,5.822-7.277,6.138-9.682l0.127-2.152c0-2.721-0.949-4.936-2.658-6.644
			c-1.582-1.583-3.543-2.342-5.885-2.278C240.348,37.99,238.514,38.812,236.932,40.521z"/>
	</g>
	<g>
		<path style="fill:#D5AC62;" d="M134.606,48.811l-4.493-2.785l-15.757,0.633l4.493,7.214l1.456,37.842l-3.86,7.593l20.06-0.759
			l-1.266-32.273c-0.063-2.152,0.316-3.164,1.012-3.038c0.822,0.126,1.203,1.139,1.266,3.038l1.203,32.209l18.921-0.316
			l-3.037-6.645l-1.267-32.462c-0.253-5.759-1.708-9.873-4.43-12.213c-1.834-1.519-3.923-2.215-6.391-2.151
			C139.289,44.824,136.631,46.215,134.606,48.811z"/>
	</g>
	<g>
		<path style="fill:#D5AC62;" d="M259.143,67.794c0.507-0.696,1.14-0.949,2.088-0.823c1.013,0.253,2.279,0.949,3.861,2.151
			c2.025,1.582,3.924,3.607,5.759,6.139l3.227-15.757c-3.101-2.342-5.822-3.987-8.163-4.936c-2.404-0.949-4.873-1.392-7.468-1.392
			c-4.746,0-8.731,1.582-11.833,4.746c-2.911,2.911-4.429,6.455-4.429,10.568c0,2.785,0.759,5.633,2.403,8.354l7.721,11.074
			c0.633,0.948,0.633,1.771,0.063,2.531c-0.632,0.696-1.454,0.949-2.53,0.759c-1.077-0.253-2.468-1.076-4.24-2.595
			c-2.215-1.834-4.366-4.113-6.454-6.896l-3.733,18.224c4.05,4.43,9.491,6.582,16.326,6.582c5,0,9.238-1.836,12.655-5.632
			c3.228-3.48,4.81-7.467,4.81-11.834c0-2.658-0.633-5.188-1.835-7.656c-1.013-1.962-2.721-4.43-5.126-7.341l-2.594-3.165
			C258.763,69.566,258.573,68.554,259.143,67.794z"/>
	</g>
	<g>
		<path style="fill:#D5AC62;" d="M26.776,47.671l6.328,7.594l7.847,45.563l-3.607,9.238l22.021-3.733
			c8.1-1.328,13.921-5.126,17.655-11.201c3.797-6.265,4.809-14.426,3.165-24.426C78.35,60.201,74.87,52.924,69.807,48.684
			c-5.696-4.619-13.922-5.948-24.68-4.177L26.776,47.671z M51.898,59.505l1.139-0.19c4.113-0.696,7.087,3.986,8.796,14.175
			c0.696,4.176,0.95,7.657,0.569,10.314c-0.442,3.48-1.772,5.379-4.049,5.822l-1.33,0.19L51.898,59.505z"/>
	</g>
	<g>
		<path style="fill:#D5AC62;" d="M233.83,57.606l5.063-7.088l-24.3-1.961l3.101,7.277l-4.493,18.035l-1.519-20.503l2.911-4.809
			l-25.123-2.278l4.81,8.036l7.91,40.88l-1.898,7.53l-6.392,7.974l20.187,1.834L233.83,57.606z"/>
	</g>
	<g>
		<path style="fill:#D5AC62;" d="M174.41,66.466c0.063-1.898,0.507-2.784,1.265-2.722c0.76,0.064,1.077,1.013,0.95,2.848
			l-0.95,32.399l21.517,1.077l-5.189-9.937l0.948-29.488c0.127-4.683-0.631-8.353-2.403-11.011c-1.709-2.594-4.241-3.986-7.404-4.05
			c-3.228-0.127-6.012,1.076-8.226,3.543l-3.672-3.038l-16.325-0.442l3.986,7.404l-1.14,38.032l-3.859,7.151l19.554,0.695
			L174.41,66.466z"/>
	</g>
	<g>
		<path style="fill:#FFFFFF;" d="M113.408,86.969c1.075-3.291,1.582-7.088,1.392-11.328l-13.479,1.267
			c0.063,0.948-0.127,1.962-0.316,2.974l-0.633,1.962c-0.253,0.949-0.696,1.518-1.266,1.709c-0.696,0.126-1.266-0.253-1.772-1.329
			c-0.759-1.582-1.329-3.985-1.583-7.151L114.8,73.3c-0.254-6.139-1.013-11.201-2.088-15.188c-0.949-3.354-2.342-6.328-4.113-8.795
			c-1.266-1.772-3.038-3.228-5.316-4.303c-2.278-1.076-4.683-1.583-7.214-1.583c-6.012,0.063-10.441,2.848-13.29,8.354
			c-2.657,5.189-3.606,12.213-2.784,21.199c0.506,5.38,1.519,9.998,3.038,13.796c1.519,3.859,3.543,6.833,5.948,8.859
			c2.974,2.403,6.391,3.48,10.251,3.226c3.797-0.188,6.961-1.581,9.492-4.049C110.813,92.79,112.332,90.195,113.408,86.969z
			 M98.789,59.568c0.38,1.013,0.696,2.278,0.95,3.86l-4.936,0.443c-0.063-1.835,0.19-3.354,0.569-4.556
			c0.379-1.012,0.76-1.519,1.329-1.583C97.524,57.67,98.22,58.303,98.789,59.568z"/>
	</g>
	<g>
		<path style="fill:#FFFFFF;" d="M246.423,37.483c-1.582-1.582-3.543-2.341-5.885-2.341c-2.088,0.063-3.924,0.886-5.505,2.531
			c-1.646,1.708-2.531,3.86-2.531,6.392c0,1.898,0.442,3.48,1.328,4.809c0.886,1.266,2.152,2.215,3.861,2.848l-2.911,6.96
			c-0.381,0.949-0.253,1.772,0.505,2.342c0.761,0.569,1.583,0.569,2.468-0.126l5.633-4.493c3.164-3.164,5.063-6.581,5.569-10.125
			l0.126-2.215C249.081,41.406,248.133,39.255,246.423,37.483z"/>
	</g>
	<g>
		<path style="fill:#FFFFFF;" d="M132.076,46.532l-0.19-3.038l-20.06,0.823l4.493,7.151l1.456,37.905l-3.86,7.594l20.06-0.696
			l-1.266-32.336c-0.063-2.152,0.316-3.101,1.013-3.038c0.822,0.126,1.203,1.139,1.266,3.038l1.202,32.209l18.921-0.316
			l-3.038-6.645l-1.266-32.462c-0.252-5.758-1.708-9.809-4.429-12.213c-1.835-1.582-3.923-2.278-6.392-2.151
			C136.758,42.482,134.1,43.874,132.076,46.532z"/>
	</g>
	<g>
		<path style="fill:#FFFFFF;" d="M257.75,67.984c-0.885-1.265-1.075-2.342-0.505-3.101c0.505-0.696,1.139-0.949,2.087-0.759
			c1.014,0.19,2.279,0.886,3.861,2.152c2.024,1.519,3.924,3.607,5.758,6.138l3.228-15.757c-3.102-2.341-5.822-3.986-8.163-4.936
			c-2.404-1.012-4.873-1.455-7.468-1.455c-4.746,0-8.732,1.582-11.833,4.746c-2.911,2.975-4.429,6.518-4.429,10.568
			c0,2.911,0.695,5.759,2.024,8.417c0.76,1.582,2.468,4.05,4.936,7.593l2.469,3.608c0.695,0.948,0.822,1.771,0.442,2.468
			c-0.442,0.632-1.202,0.886-2.216,0.632c-1.075-0.252-2.468-1.075-4.239-2.594c-2.215-1.772-4.365-4.114-6.454-6.834l-3.671,17.592
			c2.532,2.847,5.506,4.872,8.733,6.075c2.53,1.012,5.188,1.519,8.036,1.519c5.569-0.063,9.999-2.089,13.163-6.201
			c2.721-3.418,4.112-7.277,4.112-11.708c0-2.657-0.695-5.188-1.961-7.594c-1.013-1.897-2.785-4.366-5.315-7.403L257.75,67.984z"/>
	</g>
	<g>
		<path style="fill:#FFFFFF;" d="M77.337,68.744c-1.835-10.504-5.253-17.845-10.378-22.085c-5.631-4.556-13.858-5.949-24.616-4.113
			l-18.414,3.101l6.391,7.594l7.847,45.563l-3.67,9.301l22.084-3.733c8.607-1.519,14.745-5.251,18.226-11.201
			C78.224,87.222,79.109,79.059,77.337,68.744z M49.05,57.479l1.14-0.126c4.176-0.759,7.087,3.924,8.859,14.112
			c0.696,4.239,0.886,7.72,0.569,10.314c-0.443,3.48-1.835,5.442-4.05,5.822l-1.329,0.189L49.05,57.479z"/>
	</g>
	<g>
		<path style="fill:#FFFFFF;" d="M231.805,55.012l6.392-7.087l-25.312-1.961l0,0l-25.756-2.342l4.873,8.037l7.909,40.943
			l-1.897,7.468l-6.455,8.035l20.503,1.773L231.805,55.012z M208.707,52.607l3.86-6.075l2.848,6.708l-4.745,18.857L208.707,52.607z"
			/>
	</g>
	<g>
		<path style="fill:#FFFFFF;" d="M172.068,63.935c0-1.898,0.443-2.784,1.202-2.722c0.823,0.127,1.14,1.076,1.012,2.848l-0.948,32.4
			l20.25,1.075l-3.986-7.087l0.949-32.274c0.188-4.682-0.634-8.416-2.342-11.01c-1.771-2.658-4.176-3.987-7.466-4.05
			c-3.165-0.19-5.949,1.013-8.228,3.544l0.126-2.911l-20.059-0.633l3.923,7.467l-1.076,37.969l-3.228,7.276l18.857,0.634
			L172.068,63.935z"/>
	</g>
	<g>
		<path style="fill:#EE3338;" d="M113.154,71.845l-0.317-3.544c-1.456-16.326-7.53-23.983-18.098-23.034
			c-4.873,0.443-8.48,3.038-10.758,7.91c-2.341,4.81-3.101,11.391-2.341,19.68s2.721,14.554,5.822,18.731
			c3.101,4.239,7.15,6.076,12.086,5.633c4.303-0.443,7.594-2.342,9.999-5.949c2.404-3.544,3.607-8.227,3.543-14.112l-10.314,0.949
			c-0.063,1.962-0.443,3.608-1.076,4.873c-0.696,1.392-1.519,2.089-2.468,2.216c-2.784,0.252-4.492-3.038-5.125-9.746l-0.19-1.835
			L113.154,71.845z M93.854,58.745c0.57-1.645,1.519-2.531,2.658-2.657c2.785-0.253,4.493,2.657,5.063,8.859l-8.353,0.696
			C92.967,62.795,93.157,60.518,93.854,58.745z"/>
	</g>
	<g>
		<path style="fill:#EE3338;" d="M236.362,59.694l0.378-0.126l6.457-4.936c2.276-2.278,3.669-5.189,4.176-8.669
			c0.316-2.405,0-4.494-1.139-6.202c-1.076-1.645-2.659-2.594-4.621-2.911c-1.834-0.253-3.543,0.253-4.999,1.519
			c-1.265,1.203-2.087,2.658-2.342,4.43c-0.188,1.075-0.062,2.215,0.381,3.417c0.569,1.836,1.709,3.165,3.479,3.861l1.836,0.759
			l-3.606,8.417C236.298,59.505,236.298,59.694,236.362,59.694z"/>
	</g>
	<g>
		<path style="fill:#EE3338;" d="M268.065,68.744l2.278-11.391c-3.544-2.721-7.024-4.366-10.315-5.062
			c-4.43-0.887-8.227-0.316-11.58,1.835c-3.29,2.025-5.378,5.126-6.201,9.175c-0.57,2.911-0.254,5.759,0.95,8.607
			c0.821,1.898,2.594,4.809,5.44,8.732l2.469,3.606c0.823,1.267,1.076,2.279,0.949,3.037c-0.254,0.95-0.76,1.71-1.519,2.216
			c-0.822,0.443-1.835,0.632-2.911,0.443c-1.203-0.254-2.658-1.077-4.367-2.342c-1.771-1.393-3.479-3.037-5.126-5.063l-2.783,13.416
			c3.354,3.165,6.897,5.189,10.567,5.948c4.936,1.013,9.238,0.381,12.846-1.834c3.544-2.215,5.822-5.759,6.772-10.505
			c0.632-3.228,0.442-6.265-0.76-9.05c-0.887-1.962-2.785-4.746-5.696-8.29l-2.721-3.291c-1.203-1.772-1.392-3.417-0.568-4.873
			c0.758-1.393,2.088-1.961,3.859-1.583c1.139,0.253,2.468,0.949,3.987,2.152C265.218,65.706,266.674,67.162,268.065,68.744z"/>
	</g>
	<g>
		<path style="fill:#EE3338;" d="M134.543,46.215c-1.519,1.329-2.784,3.48-3.923,6.392l-0.317-7.34l-15.567,0.633l3.228,5.126
			l1.518,38.727l-2.848,5.506l15.567-0.632l-1.139-30.439c-0.063-1.455,0.19-2.657,0.759-3.606c0.506-0.823,1.139-1.329,1.899-1.329
			c0.886,0,1.582,0.316,2.025,1.012c0.506,0.823,0.822,1.899,0.822,3.418l1.202,30.754l14.809-0.253l-2.152-4.557l-1.266-32.842
			c-0.189-4.24-1.012-7.467-2.658-9.682c-1.582-2.152-3.733-3.228-6.455-3.101C137.897,44.064,136.062,44.824,134.543,46.215z"/>
	</g>
	<g>
		<path style="fill:#EE3338;" d="M27.092,46.849l4.746,5.695l8.037,46.447l-2.721,6.962l19.174-3.291
			c16.263-2.722,22.654-13.984,19.364-33.665c-1.646-9.682-4.683-16.453-9.112-20.44c-5.316-4.747-13.29-6.202-23.984-4.43
			L27.092,46.849z M47.152,56.151l2.785-0.443c5.252-0.886,8.795,4.24,10.694,15.504c1.898,11.138,0.316,17.148-4.809,18.035
			l-2.974,0.505L47.152,56.151z"/>
	</g>
	<g>
		<path style="fill:#EE3338;" d="M230.287,54.189l4.366-4.81l-19.744-1.582l2.215,5.315l-7.213,28.604L207,52.228l3.037-4.937
			l-19.808-1.708l3.354,5.505l8.037,41.575l-2.088,8.228l-4.747,5.82l16.136,1.456L230.287,54.189z"/>
	</g>
	<g>
		<path style="fill:#EE3338;" d="M186.94,48.24c-1.456-2.277-3.481-3.417-6.201-3.543c-2.216,0-4.114,0.569-5.696,1.898
			c-1.582,1.266-3.037,3.227-4.304,6.011l0.19-7.277l-15.631-0.506l2.848,5.378l-1.075,38.792l-2.405,5.252l14.808,0.441
			l0.886-30.437c0.064-1.455,0.38-2.658,1.013-3.48c0.569-0.886,1.266-1.266,2.025-1.266c0.885,0.063,1.52,0.443,1.963,1.139
			c0.441,0.823,0.632,2.025,0.569,3.48l-0.887,30.755l15.63,0.822l-2.72-4.809l1.012-32.78
			C189.091,53.873,188.396,50.582,186.94,48.24z"/>
	</g>
	<g>
		<path style="fill:#B32E30;" d="M101.574,64.947l-5.126,0.443l0.127,3.038l8.29-0.76c-0.507-5.822-2.088-8.732-4.62-8.796
			C100.877,60.327,101.321,62.353,101.574,64.947z"/>
	</g>
	<g>
		<path style="fill:#B32E30;" d="M113.027,80.262c0.063-1.013,0.127-2.024,0.063-3.103l-10.314,0.949
			c-0.063,1.962-0.443,3.608-1.076,4.873c-0.696,1.392-1.519,2.089-2.468,2.216h-0.316c0.886,1.961,2.088,2.91,3.607,2.721
			c1.013-0.064,1.772-0.822,2.468-2.151c0.633-1.329,1.076-2.975,1.139-4.874L113.027,80.262z"/>
	</g>
	<g>
		<path style="fill:#B32E30;" d="M98.03,47.987c3.354-0.316,6.265,0.253,8.733,1.708c-3.038-3.417-6.96-4.936-12.023-4.429
			c-4.873,0.443-8.48,3.038-10.758,7.91c-2.341,4.81-3.101,11.391-2.341,19.68c0.506,5.821,1.708,10.695,3.417,14.554
			c1.708,3.797,3.987,6.519,6.708,8.101c-3.671-4.113-5.949-10.758-6.835-19.934c-0.759-8.29,0.063-14.808,2.341-19.681
			C89.614,51.088,93.157,48.494,98.03,47.987z"/>
	</g>
	<g>
		<path style="fill:#B32E30;" d="M236.614,38.369c-1.265,1.203-2.087,2.658-2.342,4.43c-0.126,0.822-0.062,1.834,0.255,2.911
			c0.315,1.582,1.075,2.785,2.213,3.544c-0.188-0.886-0.252-1.835-0.126-2.848c0.317-1.708,1.077-3.228,2.342-4.43
			c1.456-1.266,3.164-1.771,5.063-1.519c1.14,0.19,2.216,0.633,3.102,1.393c-0.381-1.393-1.077-2.531-2.025-3.417
			c-1.013-0.823-2.151-1.329-3.481-1.582C239.779,36.597,238.07,37.103,236.614,38.369z"/>
	</g>
	<g>
		<path style="fill:#B32E30;" d="M239.083,52.987l-2.848,6.581l0.063,0.126l0.316-0.063c1.646-0.949,3.798-2.594,6.456-4.872
			C240.664,53.746,239.273,53.177,239.083,52.987z"/>
	</g>
	<g>
		<path style="fill:#B32E30;" d="M269.964,59.062l0.38-1.709c-3.544-2.721-7.024-4.366-10.315-5.062
			c-4.43-0.887-8.227-0.316-11.58,1.835c-3.29,2.025-5.378,5.126-6.201,9.175c-0.57,2.595-0.316,5.252,0.633,7.784
			c0.695,1.961,2.215,4.555,4.429,7.657c-1.266-2.088-2.15-3.987-2.594-5.759c-0.506-1.962-0.506-3.986-0.063-6.075
			c0.821-4.113,2.847-7.15,6.2-9.238c3.291-2.088,7.152-2.658,11.518-1.772C264.838,56.404,267.369,57.416,269.964,59.062z"/>
	</g>
	<g>
		<path style="fill:#B32E30;" d="M251.613,85.07c0.379,0.886,0.505,1.583,0.442,2.214c-0.254,0.95-0.76,1.71-1.519,2.216
			c-0.822,0.443-1.835,0.632-2.911,0.443c-1.203-0.254-2.658-1.077-4.367-2.342c-1.771-1.393-3.479-3.037-5.126-5.063l-2.783,13.416
			l2.657,2.279l2.531-12.088c1.646,1.962,3.354,3.671,5.063,5c1.772,1.329,3.163,2.152,4.367,2.341
			c1.139,0.254,2.088,0.126,2.911-0.38c0.821-0.569,1.328-1.265,1.519-2.214c0.188-0.761-0.063-1.584-0.697-2.658L251.613,85.07z"/>
	</g>
	<g>
		<path style="fill:#B32E30;" d="M133.784,55.455c1.14-2.848,2.405-4.937,3.923-6.329c1.519-1.329,3.354-2.088,5.506-2.215
			c1.328,0,2.594,0.19,3.67,0.696c-1.646-2.531-3.923-3.734-6.834-3.606c-2.975,0.126-5.379,1.519-7.277,4.176h0.696L133.784,55.455
			z"/>
	</g>
	<g>
		<path style="fill:#B32E30;" d="M130.303,45.267l-15.567,0.633l3.228,5.126l1.518,38.727l-2.848,5.506l4.81-0.253l1.202-2.342
			l-1.519-38.727l-3.228-5.125l12.53-0.506L130.303,45.267z"/>
	</g>
	<g>
		<path style="fill:#B32E30;" d="M136.884,62.163l-0.442,0.063l0.126,1.456l1.202,30.754l3.101-0.063l-1.139-27.781
			c0-1.456-0.316-2.595-0.822-3.417C138.466,62.479,137.77,62.1,136.884,62.163z"/>
	</g>
	<g>
		<path style="fill:#B32E30;" d="M173.65,55.771c1.328-2.784,2.784-4.809,4.365-6.075c1.647-1.266,3.48-1.898,5.634-1.834
			c1.393,0,2.594,0.316,3.606,0.949c-1.455-2.595-3.606-3.987-6.517-4.113c-3.038-0.064-5.507,1.202-7.532,3.733l0.697,0.064
			L173.65,55.771z"/>
	</g>
	<g>
		<path style="fill:#B32E30;" d="M170.803,48.367l0.127-3.038l-15.631-0.506l2.848,5.378l-1.075,38.792l-2.405,5.252h4.113
			l1.203-2.152l1.201-38.791l-2.847-5.315L170.803,48.367z"/>
	</g>
	<g>
		<path style="fill:#B32E30;" d="M178.271,63.808c-0.443-0.76-1.078-1.14-1.963-1.14l-0.443,0.063l0.064,1.392l-0.887,30.755
			l3.037,0.126l0.76-27.78C178.902,65.77,178.713,64.63,178.271,63.808z"/>
	</g>
	<g>
		<path style="fill:#B32E30;" d="M55.885,89.183l0.507,3.037l2.974-0.505c5.063-0.822,6.708-6.835,4.745-18.036
			c-1.519-9.239-4.176-14.427-7.973-15.376c1.961,2.531,3.48,6.771,4.493,12.909C62.529,82.35,60.947,88.36,55.885,89.183z"/>
	</g>
	<g>
		<path style="fill:#B32E30;" d="M27.092,46.849l4.746,5.695l8.037,46.447l-2.721,6.962l4.936-0.886l1.266-3.544l-7.974-46.448
			l-4.81-5.758l15.566-2.658c8.543-1.519,15.441-0.823,20.503,1.962c-5.378-4.81-13.352-6.265-24.046-4.493L27.092,46.849z"/>
	</g>
	<g>
		<path style="fill:#B32E30;" d="M217.757,51.088l14.365,1.139l2.531-2.848l-19.744-1.582l2.215,5.315l-5.315,20.44l1.013,11.389
			l7.214-28.539L217.757,51.088z"/>
	</g>
	<g>
		<path style="fill:#B32E30;" d="M193.077,48.874l15.189,1.393l1.771-2.975l-19.808-1.708l3.354,5.505l8.037,41.575l-2.088,8.228
			l-4.747,5.82l5.125,0.508l2.468-3.037l2.09-8.228l-8.038-41.575L193.077,48.874z"/>
	</g>
	<g>
		<path style="fill:#EE3338;" d="M231.553,103.738c-0.76-0.823-1.646-1.139-2.721-1.139c-1.076,0-2.025,0.315-2.785,1.139
			c-0.76,0.759-1.139,1.709-1.139,2.721c0,1.076,0.379,2.025,1.139,2.784c0.76,0.76,1.709,1.14,2.785,1.14
			c1.074,0,1.961-0.38,2.721-1.14c0.76-0.759,1.202-1.708,1.202-2.784C232.755,105.447,232.313,104.497,231.553,103.738z
			 M230.856,104.435c0.506,0.569,0.822,1.202,0.822,2.024c0,0.821-0.316,1.519-0.822,2.088c-0.569,0.57-1.266,0.823-2.024,0.823
			c-0.761,0-1.456-0.253-2.025-0.823c-0.569-0.569-0.823-1.267-0.823-2.088c0-0.822,0.254-1.455,0.823-2.024
			c0.569-0.57,1.265-0.823,2.025-0.823C229.591,103.611,230.287,103.864,230.856,104.435z"/>
		<path style="fill:#EE3338;" d="M228.071,106.775h0.635l0.948,1.709h1.076l-1.076-1.709c0.822-0.064,1.202-0.507,1.202-1.202
			c0-0.569-0.126-0.887-0.507-1.139l-1.139-0.191h-2.024v4.241h0.885V106.775z M229.718,105.89l-0.443,0.063h-1.203v-0.949h0.949
			c0.57,0,0.886,0.126,0.886,0.443L229.718,105.89z"/>
	</g>
</g>
</svg>
