<?xml version="1.0"?>
<svg width="670" height="350" xmlns="http://www.w3.org/2000/svg" xmlns:svg="http://www.w3.org/2000/svg">
 <metadata id="metadata8">image/svg+xml</metadata>
 <defs>
  <clipPath id="clipPath16" clipPathUnits="userSpaceOnUse">
   <path id="path18" d="m0,612l792,0l0,-612l-792,0l0,612z"/>
  </clipPath>
 </defs>
 <g>
  <title>Layer 1</title>
  <g id="g20" transform="matrix(1.3333333,0,0,-1.3333333,0,816) ">
   <path id="path22" d="m61.859985,399.502533c-4.462994,-1.881012 -8.971996,-2.821014 -13.524006,-2.821014c-7.17799,0 -13.633999,1.246033 -19.366999,3.739014c-5.731981,2.493011 -10.568972,5.931 -14.50699,10.309998c-3.94101,4.373993 -6.959001,9.515015 -9.06001,15.423004c-2.10199,5.908997 -3.15198,12.277985 -3.15198,19.109039c0,7 1.04999,13.5 3.15198,19.497009c2.10101,5.994934 5.119,11.224915 9.06001,15.687927c3.938,4.466064 8.77499,7.966003 14.50699,10.507019c5.733,2.538025 12.189009,3.808044 19.366999,3.808044c4.812,0 9.473999,-0.723999 13.984997,-2.169067c4.507011,-1.442993 8.577003,-3.565979 12.209007,-6.366943c3.632996,-2.802002 6.632004,-6.258057 8.994995,-10.372009c2.365021,-4.116028 3.808014,-8.844055 4.333023,-14.182007l-19.695023,0c-1.225998,5.250977 -3.590988,9.190979 -7.090988,11.816956c-3.502003,2.625061 -7.746002,3.940063 -12.736012,3.940063c-4.638988,0 -8.579998,-0.899048 -11.817001,-2.694031c-3.238998,-1.794006 -5.864986,-4.200012 -7.875988,-7.218018c-2.01601,-3.02301 -3.480989,-6.455994 -4.40201,-10.309937c-0.91699,-3.851013 -1.379,-7.83606 -1.379,-11.945007c0,-3.94104 0.462009,-7.772034 1.379,-11.492035c0.921021,-3.722015 2.386,-7.069 4.40201,-10.04599c2.011002,-2.97702 4.63699,-5.361023 7.875988,-7.155029c3.237003,-1.793976 7.178013,-2.688995 11.817001,-2.688995c6.828011,0 12.098999,1.725952 15.823002,5.185944c3.719009,3.457001 5.886002,8.466003 6.499008,15.032013l-20.747009,0l0,15.364044l39.389999,0l0,-50.682037l-13.126999,0l-2.103004,10.633972c-3.676994,-4.724976 -7.745995,-8.030975 -12.210991,-9.911957" fill-rule="nonzero" fill="#606163"/>
  </g>
  <g id="g24" transform="matrix(1.3333333,0,0,-1.3333333,0,816) ">
   <path id="path26" d="m113.870193,466.658691l0,-12.604004l0.261993,0c0.875,2.100037 2.057007,4.048035 3.546021,5.842041c1.487976,1.791992 3.192993,3.325989 5.120972,4.594971c1.924011,1.27002 3.983002,2.254028 6.170013,2.955017c2.187988,0.697998 4.466003,1.049988 6.82901,1.049988c1.225983,0 2.582001,-0.218994 4.069977,-0.656982l0,-19.669006c-0.875977,0.174011 -1.927002,0.329041 -3.149994,0.460999c-1.227997,0.128052 -2.41098,0.196045 -3.548004,0.196045c-3.41098,0 -6.300995,-0.570007 -8.665977,-1.707031c-2.361,-1.138 -4.265022,-2.690002 -5.709991,-4.661987c-1.445015,-1.968018 -2.473999,-4.265015 -3.084023,-6.89502c-0.615997,-2.625 -0.922997,-5.468994 -0.922997,-8.533997l0,-28.252991l-18.642006,0l0,67.881958l17.725006,0z" fill-rule="nonzero" fill="#606163"/>
  </g>
  <g id="g28" transform="matrix(1.3333333,0,0,-1.3333333,0,816) ">
   <path id="path30" d="m184.32869,431.99762c-0.787994,-0.703003 -1.773987,-1.251007 -2.95401,-1.644012c-1.179993,-0.391998 -2.451996,-0.720001 -3.807983,-0.985992c-1.358002,-0.26001 -2.779022,-0.479004 -4.266998,-0.652008c-1.489014,-0.178986 -2.97702,-0.39798 -4.464996,-0.65799c-1.400024,-0.264984 -2.778015,-0.612 -4.13501,-1.049988c-1.358002,-0.438995 -2.540009,-1.032013 -3.545013,-1.772003c-1.006989,-0.744019 -1.816986,-1.688995 -2.428986,-2.826019c-0.612,-1.136993 -0.917999,-2.579987 -0.917999,-4.332977c0,-1.662018 0.306,-3.063019 0.917999,-4.201019c0.612,-1.136993 1.442993,-2.03598 2.494995,-2.688995c1.049988,-0.65799 2.276001,-1.118988 3.674988,-1.377991c1.400024,-0.265991 2.843018,-0.39801 4.333008,-0.39801c3.679016,0 6.520996,0.610992 8.537018,1.839996c2.010986,1.223999 3.496979,2.694 4.462982,4.395996c0.960999,1.708008 1.552002,3.439026 1.774017,5.188019c0.213989,1.752991 0.325989,3.149994 0.325989,4.204987l0,6.958008zm-43.067993,16.122986c0.264984,4.377014 1.355988,5.671021 3.28299,8.560059c1.927002,2.889954 4.378998,5.20697 7.355988,6.957947c2.972076,1.751038 6.321014,2.998047 10.042023,3.744019c3.720001,0.742004 7.463989,1.114014 11.225983,1.114014c3.415009,0 6.871002,-0.242004 10.373016,-0.721008c3.5,-0.482056 6.699005,-1.424988 9.583984,-2.822021c2.891022,-1.401978 5.253021,-3.348999 7.091003,-5.844971c1.839996,-2.492004 2.757996,-5.798035 2.757996,-9.911011l0,-35.322021c0,-3.063995 0.173004,-5.993988 0.525024,-8.798004c0.349976,-2.79895 0.962982,-4.898956 1.839996,-6.300964l-18.907013,0c-0.35199,1.049988 -0.636993,2.123016 -0.854004,3.219025c-0.218933,1.090973 -0.373962,2.209991 -0.460999,3.347015c-2.97699,-3.064026 -6.479004,-5.210052 -10.503998,-6.434052c-4.027008,-1.223999 -8.139008,-1.839966 -12.34201,-1.839966c-3.238983,0 -6.258972,0.397949 -9.060974,1.182983c-2.800995,0.790009 -5.251007,2.014008 -7.350952,3.675995c-2.100067,1.661987 -3.744049,3.760986 -4.924042,6.304993c-1.181,2.534027 -1.774017,5.557007 -1.774017,9.05899c0,3.84903 0.67804,7.022003 2.036011,9.518982c1.356995,2.494019 3.10498,4.484009 5.251007,5.973022c2.145996,1.487976 4.597992,2.602997 7.353973,3.346985c2.757019,0.744019 5.536011,1.338013 8.33902,1.776001c2.798981,0.43399 5.557007,0.785004 8.268982,1.050018c2.712036,0.259979 5.123047,0.657013 7.222992,1.182953c2.100006,0.525024 3.762024,1.287048 4.991028,2.296021c1.223999,1.004028 1.791992,2.470032 1.704987,4.396973c0,2.014038 -0.325989,3.611023 -0.984009,4.79303c-0.65799,1.182983 -1.533997,2.101013 -2.625,2.757996c-1.095978,0.655029 -2.365997,1.091003 -3.807983,1.309998c-1.445007,0.220032 -3,0.328979 -4.662018,0.328979c-3.674988,0 -6.565979,-0.784973 -8.665985,-2.359985c-2.100006,-1.577942 -3.32901,-1.862976 -3.675018,-5.541992l-18.64798,0z" fill-rule="nonzero" fill="#606163"/>
  </g>
  <g id="g32" transform="matrix(1.3333333,0,0,-1.3333333,0,816) ">
   <path id="path34" d="m254.965393,440.987854c-0.525024,2.584961 -1.422012,4.857971 -2.689011,6.830994c-1.269012,1.967957 -2.914001,3.564941 -4.924011,4.791016c-2.015991,1.225952 -4.553009,1.836975 -7.615997,1.836975c-3.06601,0 -5.645996,-0.611023 -7.747009,-1.836975c-2.099976,-1.226074 -3.786987,-2.846008 -5.053986,-4.859009c-1.269012,-2.014038 -2.192078,-4.311035 -2.758057,-6.890991c-0.570007,-2.584045 -0.853943,-5.277039 -0.853943,-8.07605c0,-2.625977 0.307007,-5.250977 0.917999,-7.876984c0.612,-2.625 1.597931,-4.972015 2.95401,-7.026001c1.355988,-2.054993 3.063995,-3.722015 5.123932,-4.992004c2.054047,-1.268005 4.528992,-1.89801 7.416992,-1.89801c3.062988,0 5.623047,0.606018 7.682007,1.835022c2.054047,1.223999 3.695068,2.866974 4.922058,4.921997c1.225952,2.05899 2.099991,4.401001 2.625015,7.026978c0.526978,2.625 0.789978,5.337006 0.789978,8.141022c0,2.798981 -0.263,5.492981 -0.789978,8.072021m0.789978,-33.545013c-2.189041,-3.676025 -5.055008,-6.324005 -8.602005,-7.945007c-3.542999,-1.615997 -7.546997,-2.428986 -12.013,-2.428986c-5.076996,0 -9.542999,0.986023 -13.391998,2.95401c-3.853027,1.972992 -7.026978,4.639008 -9.519989,8.008972c-2.495056,3.368988 -4.377991,7.246002 -5.644989,11.620026c-1.272003,4.379028 -1.905029,8.93103 -1.905029,13.656036c0,4.552979 0.633026,8.949982 1.905029,13.196014c1.266998,4.244995 3.149933,7.987 5.644989,11.225952c2.493011,3.236938 5.622986,5.844971 9.388,7.812988c3.761932,1.969971 8.140991,2.953979 13.130951,2.953979c4.02301,0 7.853973,-0.853943 11.488037,-2.55896c3.629944,-1.708008 6.5,-4.225952 8.600021,-7.550049l0.26297,0l0,53.585022l18.644012,0l0,-113.195984l-17.723999,0l0,8.666016l-0.263,0l0,-0.000031z" fill-rule="nonzero" fill="#606163"/>
  </g>
  <g id="g36" transform="matrix(1.3333333,0,0,-1.3333333,0,816) ">
   <path id="path38" d="m279.945862,452.99176c-0.481964,-0.160034 -0.979004,-0.238037 -1.475983,-0.238037l0,-53.97699l18.642975,0l0,59.924988l-17.166992,-5.709961z" fill-rule="nonzero" fill="#606163"/>
  </g>
  <g id="g40" transform="matrix(1.3333333,0,0,-1.3333333,0,816) ">
   <path id="path42" d="m343.005463,450.772034c-2.233002,2.448975 -5.62796,3.674988 -10.178009,3.674988c-2.975952,0 -5.448975,-0.501953 -7.419952,-1.507996c-1.96701,-1.007019 -3.542999,-2.254028 -4.725006,-3.740967c-1.183014,-1.489014 -2.014038,-3.069031 -2.494995,-4.726013c-0.481995,-1.666992 -0.766998,-3.155029 -0.85202,-4.466003l30.32901,0c-0.874023,4.726013 -2.429016,8.315002 -4.659027,10.765991m-21.075958,-35.713989c2.800903,-2.712006 6.827942,-4.067017 12.080933,-4.067017c3.763,0 7,0.934998 9.716003,2.821014c2.712982,1.880981 4.375,3.871979 4.988007,5.971924l16.412018,0c-2.625,-8.140961 -6.652039,-13.962006 -12.078003,-17.459961c-5.427002,-3.501984 -11.992981,-5.255005 -19.695007,-5.255005c-5.340027,0 -10.155029,0.852997 -14.442993,2.561005c-4.291992,1.708008 -7.923981,4.136963 -10.89798,7.287964c-2.977997,3.149994 -5.274017,6.912994 -6.894989,11.291077c-1.621002,4.37796 -2.42804,9.190979 -2.42804,14.441986c0,5.076996 0.830017,9.803009 2.495026,14.181976c1.662018,4.377014 4.024017,8.162048 7.090973,11.358032c3.060974,3.192017 6.715027,5.712036 10.96405,7.547974c4.241943,1.840027 8.947998,2.758057 14.113953,2.758057c5.774963,0 10.80896,-1.115051 15.09903,-3.347046c4.287018,-2.232971 7.811981,-5.231995 10.569977,-8.995056c2.757019,-3.764954 4.749023,-8.05304 5.973999,-12.86499c1.22702,-4.817963 1.661987,-9.848999 1.312988,-15.100006l-48.973969,0c0.261017,-6.040985 1.792023,-10.419006 4.594025,-13.131989" fill-rule="nonzero" fill="#606163"/>
  </g>
  <g id="g44" transform="matrix(1.3333333,0,0,-1.3333333,0,816) ">
   <path id="path46" d="m426.18219,460.816895c-1.840027,2.406006 -4.35495,4.287048 -7.551971,5.646057c-1.335999,0.565979 -2.836975,1.007019 -4.484039,1.336975l-3.518005,-1.169983c-0.002991,-0.001038 -0.005981,-0.002991 -0.008972,-0.004028l-24.108032,-8.019958c-0.309967,-0.452026 -0.610931,-0.916992 -0.901001,-1.401001l-0.395996,0l0,0.968994l-15.578003,-5.182007c-0.481964,-0.160034 -0.979004,-0.238037 -1.474976,-0.238037c-0.226013,0 -0.450989,0.02002 -0.672943,0.052002l0,-54.028992l18.645966,0l0,35.582001c0,6.912018 1.136963,11.884979 3.412964,14.902008c2.277039,3.022034 5.952057,4.531006 11.030029,4.531006c4.464966,0 7.570007,-1.378967 9.323029,-4.137024c1.748932,-2.753967 2.625946,-6.937012 2.625946,-12.537933l0,-38.340027l18.643982,0l0,41.755035c0,4.199951 -0.371948,8.026001 -1.115967,11.485901c-0.743988,3.457031 -2.036987,6.388 -3.872009,8.799011" fill-rule="nonzero" fill="#606163"/>
  </g>
  <g id="g48" transform="matrix(1.3333333,0,0,-1.3333333,0,816) ">
   <path id="path50" d="m451.191956,415.647034c0.830994,-1.441986 1.903992,-2.625 3.21698,-3.542999c1.314056,-0.916992 2.824036,-1.597992 4.528992,-2.036011c1.708008,-0.438995 3.480042,-0.656982 5.319031,-0.656982c1.312988,0 2.692017,0.154999 4.137054,0.460999c1.442963,0.304993 2.755951,0.790009 3.937958,1.442993c1.179993,0.657013 2.167023,1.53299 2.954956,2.630005c0.787048,1.091003 1.179016,2.470001 1.179016,4.131989c0,2.803009 -1.857971,4.903015 -5.578979,6.304993c-3.721008,1.397003 -8.90802,2.799011 -15.557953,4.201019c-2.715057,0.612 -5.363068,1.333008 -7.945038,2.164001c-2.582031,0.830994 -4.879028,1.925995 -6.891998,3.28299c-2.014008,1.356018 -3.63504,3.062988 -4.859009,5.123016c-1.22702,2.055023 -1.83902,4.569977 -1.83902,7.547028c0,4.37793 0.853027,7.966919 2.561066,10.767944c1.707916,2.801025 3.958954,5.010986 6.761932,6.632019c2.799011,1.616028 5.952026,2.757019 9.454041,3.413025c3.5,0.654968 7.090942,0.984009 10.766968,0.984009c3.677002,0 7.242981,-0.352051 10.700012,-1.051025c3.458038,-0.700012 6.542969,-1.882996 9.259003,-3.542969c2.712006,-1.666016 4.965027,-3.876038 6.759979,-6.631042c1.791992,-2.757996 2.864014,-6.237 3.216034,-10.439026l-17.725006,0c-0.261047,3.588013 -1.621033,6.016052 -4.070007,7.286011c-2.452026,1.268982 -5.340027,1.903015 -8.666016,1.903015c-1.049988,0 -2.188965,-0.062988 -3.413025,-0.195984c-1.227966,-0.132019 -2.34198,-0.415039 -3.348999,-0.854004c-1.005981,-0.437988 -1.860931,-1.072998 -2.55896,-1.904053c-0.703003,-0.830933 -1.049988,-1.948975 -1.049988,-3.344971c0,-1.666992 0.610962,-3.022949 1.834991,-4.072998c1.226959,-1.049988 2.825958,-1.903992 4.793976,-2.557007c1.968994,-0.656982 4.223999,-1.250977 6.763,-1.776001c2.538025,-0.524963 5.119995,-1.096008 7.746033,-1.703003c2.71402,-0.615967 5.362,-1.360992 7.94397,-2.232971c2.582031,-0.877014 4.879028,-2.036011 6.893036,-3.479004c2.013,-1.446991 3.630951,-3.240997 4.856995,-5.382996c1.226959,-2.145996 1.840973,-4.795013 1.840973,-7.945007c0,-4.464996 -0.900024,-8.209015 -2.693939,-11.227997c-1.794006,-3.016998 -4.13504,-5.446991 -7.023041,-7.287018c-2.889984,-1.839966 -6.195007,-3.131958 -9.915039,-3.870972c-3.720947,-0.744995 -7.505981,-1.119019 -11.356995,-1.119019c-3.937958,0 -7.790924,0.397003 -11.553955,1.182037c-3.765015,0.790985 -7.110992,2.100983 -10.045013,3.940979c-2.93399,1.834991 -5.339996,4.264984 -7.221008,7.286987c-1.883972,3.018005 -2.91095,6.803009 -3.087006,11.355988l17.72702,0c0,-2.013977 0.413971,-3.73999 1.246979,-5.187988" fill-rule="nonzero" fill="#606163"/>
  </g>
  <g id="g52" transform="matrix(1.3333333,0,0,-1.3333333,0,816) ">
   <path id="path54" d="m278.470276,484.705627l40.986023,-13.643005l-40.986023,-13.634033l0,27.277039z" fill-rule="nonzero" fill="#2a57a5"/>
  </g>
  <g id="g56" transform="matrix(1.3333333,0,0,-1.3333333,0,816) ">
   <path id="path58" d="m319.456604,471.0625l-40.986023,13.643066l40.986023,13.633972l0,-27.277039z" fill-rule="nonzero" fill="#006db5"/>
  </g>
  <g id="g60" transform="matrix(1.3333333,0,0,-1.3333333,0,816) ">
   <path id="path62" d="m319.456604,498.339417l-40.986023,13.638l40.986023,13.632019l0,-27.27002z" fill-rule="nonzero" fill="#00bbf2"/>
  </g>
  <g id="g64" transform="matrix(1.3333333,0,0,-1.3333333,0,816) ">
   <path id="path66" d="m278.470276,539.250061l40.986023,-13.640991l-40.986023,-13.631042l0,27.272034z" fill-rule="nonzero" fill="#4fc9f5"/>
  </g>
  <g id="g68" transform="matrix(1.3333333,0,0,-1.3333333,0,816) ">
   <path id="path70" d="m319.456604,498.339417l40.97699,-13.633972l-40.97699,-13.643066l0,27.277039z" fill-rule="nonzero" fill="#0082c7"/>
  </g>
  <g id="g72" transform="matrix(1.3333333,0,0,-1.3333333,0,816) ">
   <path id="path74" d="m360.433197,484.705627l-40.97702,13.634033l40.97702,13.637939l0,-27.271973z" fill-rule="nonzero" fill="#0098db"/>
  </g>
  <g id="g76" transform="matrix(1.3333333,0,0,-1.3333333,0,816) ">
   <path id="path78" d="m319.456604,525.609436l40.97699,-13.632019l-40.97699,-13.637939l0,27.269958z" fill-rule="nonzero" fill="#00b0f0"/>
  </g>
  <g id="g80" transform="matrix(1.3333333,0,0,-1.3333333,0,816) ">
   <path id="path82" d="m368.160675,484.705627l40.982941,-13.643005l-40.982941,-13.634033l0,27.277039z" fill-rule="nonzero" fill="#2a57a5"/>
  </g>
  <g id="g84" transform="matrix(1.3333333,0,0,-1.3333333,0,816) ">
   <path id="path86" d="m409.144043,471.0625l-40.982971,13.643066l40.982971,13.633972l0,-27.277039z" fill-rule="nonzero" fill="#006db5"/>
  </g>
  <g id="g88" transform="matrix(1.3333333,0,0,-1.3333333,0,816) ">
   <path id="path90" d="m409.144043,498.339417l-40.982971,13.638l40.982971,13.632019l0,-27.27002z" fill-rule="nonzero" fill="#00bbf2"/>
  </g>
  <g id="g92" transform="matrix(1.3333333,0,0,-1.3333333,0,816) ">
   <path id="path94" d="m368.160675,539.250061l40.982941,-13.640991l-40.982941,-13.631042l0,27.272034z" fill-rule="nonzero" fill="#4fc9f5"/>
  </g>
  <g id="g96" transform="matrix(1.3333333,0,0,-1.3333333,0,816) ">
   <path id="path98" d="m409.144043,498.339417l40.986023,-13.633972l-40.986023,-13.643066l0,27.277039z" fill-rule="nonzero" fill="#0082c7"/>
  </g>
  <g id="g100" transform="matrix(1.3333333,0,0,-1.3333333,0,816) ">
   <path id="path102" d="m450.130493,484.705627l-40.986023,13.634033l40.986023,13.637939l0,-27.271973z" fill-rule="nonzero" fill="#0098db"/>
  </g>
  <g id="g104" transform="matrix(1.3333333,0,0,-1.3333333,0,816) ">
   <path id="path106" d="m409.144043,525.609436l40.986023,-13.632019l-40.986023,-13.637939l0,27.269958z" fill-rule="nonzero" fill="#00b0f0"/>
  </g>
 </g>
</svg>