<?xml version="1.0"?>
<svg width="1056" height="816" xmlns="http://www.w3.org/2000/svg" xmlns:svg="http://www.w3.org/2000/svg">
 <metadata id="metadata8">image/svg+xml</metadata>
 <defs>
  <clipPath clipPathUnits="userSpaceOnUse" id="clipPath16">
   <path d="m0,612l792,0l0,-612l-792,0l0,612z" id="path18"/>
  </clipPath>
 </defs>
 <g>
  <title>Layer 1</title>
  <g transform="matrix(1.3333333,0,0,-1.3333333,0,816) " id="g20">
   <path fill="#606163" fill-rule="nonzero" d="m209.6436,252.701202c-4.462997,-1.880997 -8.972,-2.820999 -13.524002,-2.820999c-7.177994,0 -13.634003,1.246002 -19.367004,3.738998c-5.731979,2.493011 -10.56897,5.931 -14.506989,10.309998c-3.94101,4.373993 -6.959,9.515015 -9.060013,15.423004c-2.10199,5.908997 -3.151978,12.277985 -3.151978,19.109009c0,7 1.049988,13.5 3.151978,19.497009c2.101013,5.994995 5.119003,11.224976 9.060013,15.687988c3.938004,4.466003 8.774994,7.966003 14.506989,10.506989c5.733002,2.537994 12.189011,3.808014 19.367004,3.808014c4.811996,0 9.473999,-0.723999 13.985001,-2.169006c4.507004,-1.442993 8.576996,-3.56601 12.209,-6.367004c3.632996,-2.802002 6.632004,-6.257996 8.994995,-10.372009c2.365021,-4.115997 3.808014,-8.843994 4.333023,-14.182007l-19.695023,0c-1.225998,5.251007 -3.590988,9.19101 -7.090988,11.817017c-3.501999,2.625 -7.746002,3.940002 -12.736008,3.940002c-4.638992,0 -8.580002,-0.899017 -11.817001,-2.694c-3.238998,-1.794006 -5.86499,-4.200012 -7.875992,-7.218018c-2.016006,-3.02298 -3.480988,-6.455994 -4.402008,-10.309967c-0.916992,-3.851013 -1.378998,-7.836029 -1.378998,-11.945007c0,-3.94101 0.462006,-7.772003 1.378998,-11.492004c0.921021,-3.722015 2.386002,-7.069 4.402008,-10.04599c2.011002,-2.97702 4.636993,-5.361023 7.875992,-7.155029c3.237,-1.793976 7.178009,-2.688995 11.817001,-2.688995c6.828003,0 12.098999,1.725952 15.822998,5.185944c3.719009,3.457001 5.886002,8.466003 6.499008,15.032013l-20.747009,0l0,15.364014l39.389999,0l0,-50.682007l-13.126999,0l-2.102997,10.633972c-3.677002,-4.724976 -7.746002,-8.030975 -12.210999,-9.911972" id="path22"/>
  </g>
  <g transform="matrix(1.3333333,0,0,-1.3333333,0,816) " id="g24">
   <path fill="#606163" fill-rule="nonzero" d="m261.653809,319.857391l0,-12.604004l0.261993,0c0.875,2.100006 2.057007,4.048004 3.546021,5.84201c1.487976,1.791992 3.192993,3.325989 5.120972,4.595001c1.924011,1.269989 3.983002,2.253998 6.170013,2.954987c2.187988,0.697998 4.466003,1.050018 6.82901,1.050018c1.225983,0 2.582001,-0.219025 4.069977,-0.657013l0,-19.669006c-0.875977,0.174011 -1.927002,0.32901 -3.149994,0.460999c-1.227997,0.128021 -2.41098,0.196014 -3.548004,0.196014c-3.41098,0 -6.300995,-0.570007 -8.665985,-1.707001c-2.360992,-1.138 -4.265015,-2.690002 -5.709991,-4.662018c-1.445007,-1.967987 -2.473999,-4.264984 -3.084015,-6.894989c-0.615997,-2.625 -0.923004,-5.468994 -0.923004,-8.533997l0,-28.253006l-18.641998,0l0,67.882004l17.725006,0z" id="path26"/>
  </g>
  <g transform="matrix(1.3333333,0,0,-1.3333333,0,816) " id="g28">
   <path fill="#606163" fill-rule="nonzero" d="m332.112305,285.196289c-0.787994,-0.703003 -1.773987,-1.251007 -2.95401,-1.644012c-1.179993,-0.391998 -2.451996,-0.720001 -3.807983,-0.985992c-1.358002,-0.26001 -2.779022,-0.479004 -4.266998,-0.652008c-1.489014,-0.178986 -2.97702,-0.39798 -4.464996,-0.65799c-1.400024,-0.264984 -2.778015,-0.612 -4.13501,-1.049988c-1.358002,-0.438995 -2.540009,-1.032013 -3.545013,-1.772003c-1.006989,-0.744019 -1.816986,-1.688995 -2.428986,-2.826019c-0.612,-1.136993 -0.917999,-2.579987 -0.917999,-4.332977c0,-1.662018 0.306,-3.063019 0.917999,-4.201019c0.612,-1.136993 1.442993,-2.03598 2.494995,-2.688995c1.049988,-0.65799 2.276001,-1.118988 3.674988,-1.377991c1.400024,-0.265991 2.843018,-0.39801 4.333008,-0.39801c3.679016,0 6.520996,0.610992 8.537018,1.839996c2.010986,1.223999 3.496979,2.694 4.462982,4.395996c0.960999,1.708008 1.552002,3.439026 1.774017,5.188019c0.213989,1.752991 0.325989,3.149994 0.325989,4.204987l0,6.958008zm-43.067993,16.122986c0.264984,4.377014 1.355988,5.671021 3.28299,8.560028c1.927002,2.889984 4.378998,5.207001 7.355988,6.957977c2.972076,1.751007 6.321014,2.998016 10.042023,3.744019c3.720001,0.742004 7.463989,1.113983 11.225983,1.113983c3.415009,0 6.871002,-0.242004 10.373016,-0.720978c3.5,-0.482025 6.699005,-1.425018 9.583984,-2.822021c2.891022,-1.402008 5.253021,-3.348999 7.091003,-5.845001c1.839996,-2.492004 2.757996,-5.798004 2.757996,-9.91098l0,-35.322021c0,-3.063995 0.173004,-5.993988 0.525024,-8.798004c0.349976,-2.79895 0.962982,-4.898956 1.839996,-6.300964l-18.907013,0c-0.35199,1.050003 -0.636993,2.123016 -0.854004,3.219009c-0.218933,1.090988 -0.373962,2.210007 -0.460999,3.347031c-2.97699,-3.064026 -6.479004,-5.210037 -10.503998,-6.434036c-4.027008,-1.223999 -8.139008,-1.839996 -12.34201,-1.839996c-3.238983,0 -6.258972,0.39798 -9.060974,1.182999c-2.800995,0.790009 -5.251007,2.014008 -7.350952,3.675995c-2.100067,1.661987 -3.744049,3.760986 -4.924042,6.304993c-1.181,2.534027 -1.774017,5.557007 -1.774017,9.05899c0,3.84903 0.67804,7.022003 2.036011,9.518982c1.356995,2.494019 3.10498,4.484009 5.251007,5.973022c2.145996,1.487976 4.597992,2.602997 7.353973,3.346985c2.757019,0.744019 5.536011,1.338013 8.33902,1.776001c2.798981,0.43399 5.557007,0.785004 8.268982,1.050018c2.712036,0.259979 5.123047,0.656982 7.222992,1.182983c2.100006,0.524994 3.762024,1.286987 4.991028,2.29599c1.223999,1.003998 1.791992,2.470001 1.704987,4.397003c0,2.014008 -0.325989,3.610992 -0.984009,4.792999c-0.65799,1.183014 -1.533997,2.101013 -2.625,2.757996c-1.095978,0.655029 -2.365997,1.091003 -3.807983,1.309998c-1.445007,0.220032 -3,0.32901 -4.662018,0.32901c-3.674988,0 -6.565979,-0.785004 -8.665985,-2.359985c-2.100006,-1.578003 -3.32901,-1.863007 -3.675018,-5.542023l-18.64798,0z" id="path30"/>
  </g>
  <g transform="matrix(1.3333333,0,0,-1.3333333,0,816) " id="g32">
   <path fill="#606163" fill-rule="nonzero" d="m402.748993,294.186493c-0.524994,2.584991 -1.421997,4.858002 -2.688995,6.830994c-1.269012,1.968018 -2.914001,3.565002 -4.924011,4.791016c-2.015991,1.225983 -4.553009,1.837006 -7.615997,1.837006c-3.06601,0 -5.645996,-0.611023 -7.747009,-1.837006c-2.099976,-1.226013 -3.786987,-2.846008 -5.053986,-4.859009c-1.269012,-2.014008 -2.192078,-4.311005 -2.758057,-6.890991c-0.570007,-2.584015 -0.853943,-5.277008 -0.853943,-8.076019c0,-2.625977 0.307007,-5.250977 0.917999,-7.876984c0.612,-2.625 1.597931,-4.972015 2.95401,-7.026001c1.355988,-2.054993 3.063995,-3.722015 5.123932,-4.992004c2.054047,-1.268005 4.528992,-1.89801 7.416992,-1.89801c3.062988,0 5.623047,0.606018 7.682007,1.835022c2.054047,1.223999 3.695068,2.866974 4.922058,4.921997c1.225952,2.05899 2.100006,4.401001 2.625,7.026978c0.527008,2.625 0.790009,5.337006 0.790009,8.141022c0,2.798981 -0.263,5.492981 -0.790009,8.071991m0.790009,-33.544983c-2.189056,-3.676025 -5.055023,-6.324005 -8.60202,-7.945007c-3.542999,-1.615997 -7.546997,-2.428986 -12.013,-2.428986c-5.076996,0 -9.542999,0.986008 -13.391998,2.95401c-3.853027,1.972977 -7.026978,4.639008 -9.519989,8.008972c-2.495056,3.368988 -4.377991,7.246002 -5.644989,11.620026c-1.272003,4.379028 -1.905029,8.93103 -1.905029,13.656036c0,4.552979 0.633026,8.949982 1.905029,13.195984c1.266998,4.244995 3.149933,7.987 5.644989,11.225952c2.493011,3.237 5.622986,5.845001 9.388,7.812988c3.761932,1.970001 8.140991,2.95401 13.130951,2.95401c4.02301,0 7.853973,-0.853943 11.488037,-2.55899c3.629944,-1.708008 6.5,-4.225952 8.600006,-7.550018l0.263,0l0,53.585022l18.644012,0l0,-113.195984l-17.723999,0l0,8.666016l-0.263,0l0,-0.000031z" id="path34"/>
  </g>
  <g transform="matrix(1.3333333,0,0,-1.3333333,0,816) " id="g36">
   <path fill="#606163" fill-rule="nonzero" d="m427.729492,306.190399c-0.481995,-0.160004 -0.979004,-0.238007 -1.476013,-0.238007l0,-53.97699l18.643005,0l0,59.924988l-17.166992,-5.709991z" id="path38"/>
  </g>
  <g transform="matrix(1.3333333,0,0,-1.3333333,0,816) " id="g40">
   <path fill="#606163" fill-rule="nonzero" d="m490.789093,303.970703c-2.233002,2.449005 -5.627991,3.674988 -10.178009,3.674988c-2.975983,0 -5.449005,-0.501984 -7.419983,-1.507996c-1.96701,-1.006989 -3.542999,-2.253998 -4.725006,-3.740997c-1.183014,-1.488983 -2.014008,-3.069 -2.494995,-4.725983c-0.481995,-1.667023 -0.766998,-3.154999 -0.85202,-4.466003l30.32901,0c-0.873993,4.725983 -2.428986,8.315002 -4.658997,10.765991m-21.075989,-35.713989c2.800934,-2.712006 6.827942,-4.067017 12.080933,-4.067017c3.763,0 7,0.934998 9.716003,2.821014c2.712982,1.880981 4.375,3.871979 4.988007,5.971924l16.412048,0c-2.625,-8.140961 -6.652069,-13.962006 -12.078003,-17.459961c-5.427002,-3.501984 -11.993011,-5.255005 -19.695007,-5.255005c-5.340057,0 -10.15506,0.853012 -14.442993,2.561005c-4.291992,1.707993 -7.924011,4.136963 -10.89801,7.287964c-2.977997,3.149994 -5.273987,6.912994 -6.894989,11.291077c-1.621002,4.37796 -2.428009,9.190979 -2.428009,14.441986c0,5.076996 0.830017,9.803009 2.494995,14.182007c1.662018,4.376984 4.024017,8.161987 7.091003,11.358002c3.060944,3.191986 6.714996,5.712006 10.96402,7.548004c4.241943,1.839996 8.947998,2.757996 14.113983,2.757996c5.774933,0 10.80896,-1.115021 15.098999,-3.347015c4.287018,-2.233002 7.811981,-5.231995 10.570007,-8.995056c2.756989,-3.764923 4.748993,-8.053009 5.973999,-12.86499c1.22699,-4.817963 1.661987,-9.848999 1.312988,-15.100006l-48.973999,0c0.261017,-6.040985 1.792023,-10.419006 4.594025,-13.131989" id="path42"/>
  </g>
  <g transform="matrix(1.3333333,0,0,-1.3333333,0,816) " id="g44">
   <path fill="#606163" fill-rule="nonzero" d="m573.96582,314.015594c-1.840027,2.406006 -4.35498,4.286987 -7.552002,5.645996c-1.335999,0.56601 -2.836975,1.007019 -4.484009,1.337006l-3.518005,-1.170013c-0.002991,-0.000977 -0.005981,-0.002991 -0.008972,-0.003998l-24.108032,-8.019989c-0.309998,-0.451996 -0.610962,-0.916992 -0.901001,-1.401001l-0.395996,0l0,0.968994l-15.578003,-5.182007c-0.481995,-0.159973 -0.979004,-0.237976 -1.474976,-0.237976c-0.226013,0 -0.450989,0.019989 -0.672974,0.052002l0,-54.029022l18.645996,0l0,35.582001c0,6.912018 1.136963,11.88501 3.412964,14.902008c2.277039,3.022003 5.952026,4.531006 11.030029,4.531006c4.464966,0 7.570007,-1.378998 9.322998,-4.136993c1.748962,-2.753998 2.625977,-6.937012 2.625977,-12.537964l0,-38.340027l18.643982,0l0,41.755005c0,4.199982 -0.371948,8.026001 -1.115967,11.485962c-0.744019,3.457001 -2.036987,6.388 -3.872009,8.799011" id="path46"/>
  </g>
  <g transform="matrix(1.3333333,0,0,-1.3333333,0,816) " id="g48">
   <path fill="#606163" fill-rule="nonzero" d="m598.975586,268.845703c0.830994,-1.441986 1.903992,-2.625 3.21698,-3.542999c1.314026,-0.916992 2.824036,-1.597992 4.528992,-2.036011c1.708008,-0.438995 3.480042,-0.656982 5.319031,-0.656982c1.312988,0 2.692017,0.154999 4.137024,0.460999c1.442993,0.304993 2.755981,0.790009 3.937988,1.442993c1.179993,0.657013 2.166992,1.53299 2.954956,2.630005c0.787048,1.091003 1.179016,2.470001 1.179016,4.131989c0,2.803009 -1.857971,4.903015 -5.578979,6.304993c-3.721008,1.397003 -8.90802,2.799011 -15.557983,4.201019c-2.715027,0.612 -5.363037,1.333008 -7.945007,2.164001c-2.582031,0.830994 -4.879028,1.925995 -6.892029,3.28299c-2.013977,1.356018 -3.63501,3.062988 -4.859009,5.123016c-1.22699,2.054993 -1.838989,4.569977 -1.838989,7.546997c0,4.377991 0.853027,7.96698 2.561035,10.767975c1.707947,2.801025 3.958984,5.011017 6.761963,6.632019c2.799011,1.615997 5.952026,2.756989 9.454041,3.412994c3.5,0.654999 7.090942,0.984009 10.766968,0.984009c3.677002,0 7.242981,-0.35202 10.700012,-1.050995c3.458008,-0.700012 6.542969,-1.882996 9.258972,-3.542999c2.712036,-1.666016 4.965027,-3.876007 6.76001,-6.631012c1.791992,-2.757996 2.864014,-6.237 3.216003,-10.438995l-17.724976,0c-0.261047,3.587982 -1.621033,6.015991 -4.070007,7.28598c-2.452026,1.269012 -5.340027,1.903015 -8.666016,1.903015c-1.049988,0 -2.188965,-0.062988 -3.413025,-0.195984c-1.227966,-0.132019 -2.34198,-0.415009 -3.348999,-0.854004c-1.005981,-0.438019 -1.860962,-1.072998 -2.55896,-1.904022c-0.703003,-0.830994 -1.049988,-1.949005 -1.049988,-3.345001c0,-1.666992 0.610962,-3.02298 1.834961,-4.072998c1.22699,-1.049988 2.825989,-1.903992 4.794006,-2.557007c1.968994,-0.656982 4.223999,-1.250977 6.763,-1.77597c2.538025,-0.525024 5.119995,-1.096008 7.746033,-1.703003c2.713989,-0.615997 5.362,-1.361023 7.94397,-2.233002c2.582031,-0.877014 4.879028,-2.036011 6.893005,-3.479004c2.013,-1.446991 3.630981,-3.240997 4.856995,-5.382996c1.22699,-2.145996 1.841003,-4.795013 1.841003,-7.945007c0,-4.464996 -0.900024,-8.209015 -2.69397,-11.227997c-1.794006,-3.016998 -4.13501,-5.446991 -7.02301,-7.287003c-2.890015,-1.839996 -6.195007,-3.131989 -9.915039,-3.871002c-3.720947,-0.744995 -7.505981,-1.118988 -11.356995,-1.118988c-3.937988,0 -7.790955,0.396988 -11.553955,1.182022c-3.765015,0.790985 -7.111023,2.100998 -10.045044,3.940979c-2.93396,1.834991 -5.339966,4.264984 -7.221008,7.286987c-1.883972,3.018005 -2.91095,6.803009 -3.086975,11.355988l17.72699,0c0,-2.013977 0.414001,-3.73999 1.247009,-5.187988" id="path50"/>
  </g>
  <g transform="matrix(1.3333333,0,0,-1.3333333,0,816) " id="g52">
   <path fill="#2a57a5" fill-rule="nonzero" d="m426.253906,337.904297l40.985992,-13.643005l-40.985992,-13.634003l0,27.277008z" id="path54"/>
  </g>
  <g transform="matrix(1.3333333,0,0,-1.3333333,0,816) " id="g56">
   <path fill="#006db5" fill-rule="nonzero" d="m467.240204,324.2612l-40.985992,13.643005l40.985992,13.634003l0,-27.277008z" id="path58"/>
  </g>
  <g transform="matrix(1.3333333,0,0,-1.3333333,0,816) " id="g60">
   <path fill="#00bbf2" fill-rule="nonzero" d="m467.240204,351.538086l-40.985992,13.638l40.985992,13.631989l0,-27.269989z" id="path62"/>
  </g>
  <g transform="matrix(1.3333333,0,0,-1.3333333,0,816) " id="g64">
   <path fill="#4fc9f5" fill-rule="nonzero" d="m426.253906,392.4487l40.985992,-13.640991l-40.985992,-13.631012l0,27.272003z" id="path66"/>
  </g>
  <g transform="matrix(1.3333333,0,0,-1.3333333,0,816) " id="g68">
   <path fill="#0082c7" fill-rule="nonzero" d="m467.240204,351.538086l40.97699,-13.634003l-40.97699,-13.643005l0,27.277008z" id="path70"/>
  </g>
  <g transform="matrix(1.3333333,0,0,-1.3333333,0,816) " id="g72">
   <path fill="#0098db" fill-rule="nonzero" d="m508.216797,337.904297l-40.97699,13.634003l40.97699,13.638l0,-27.272003z" id="path74"/>
  </g>
  <g transform="matrix(1.3333333,0,0,-1.3333333,0,816) " id="g76">
   <path fill="#00b0f0" fill-rule="nonzero" d="m467.240204,378.808105l40.97699,-13.631989l-40.97699,-13.638l0,27.269989z" id="path78"/>
  </g>
  <g transform="matrix(1.3333333,0,0,-1.3333333,0,816) " id="g80">
   <path fill="#2a57a5" fill-rule="nonzero" d="m515.944275,337.904297l40.982971,-13.643005l-40.982971,-13.634003l0,27.277008z" id="path82"/>
  </g>
  <g transform="matrix(1.3333333,0,0,-1.3333333,0,816) " id="g84">
   <path fill="#006db5" fill-rule="nonzero" d="m556.927673,324.2612l-40.982971,13.643005l40.982971,13.634003l0,-27.277008z" id="path86"/>
  </g>
  <g transform="matrix(1.3333333,0,0,-1.3333333,0,816) " id="g88">
   <path fill="#00bbf2" fill-rule="nonzero" d="m556.927673,351.538086l-40.982971,13.638l40.982971,13.631989l0,-27.269989z" id="path90"/>
  </g>
  <g transform="matrix(1.3333333,0,0,-1.3333333,0,816) " id="g92">
   <path fill="#4fc9f5" fill-rule="nonzero" d="m515.944275,392.4487l40.982971,-13.640991l-40.982971,-13.631012l0,27.272003z" id="path94"/>
  </g>
  <g transform="matrix(1.3333333,0,0,-1.3333333,0,816) " id="g96">
   <path fill="#0082c7" fill-rule="nonzero" d="m556.927673,351.538086l40.986023,-13.634003l-40.986023,-13.643005l0,27.277008z" id="path98"/>
  </g>
  <g transform="matrix(1.3333333,0,0,-1.3333333,0,816) " id="g100">
   <path fill="#0098db" fill-rule="nonzero" d="m597.914124,337.904297l-40.986023,13.634003l40.986023,13.638l0,-27.272003z" id="path102"/>
  </g>
  <g transform="matrix(1.3333333,0,0,-1.3333333,0,816) " id="g104">
   <path fill="#00b0f0" fill-rule="nonzero" d="m556.927673,378.808105l40.986023,-13.631989l-40.986023,-13.638l0,27.269989z" id="path106"/>
  </g>
 </g>
</svg>