<?xml version="1.0" encoding="UTF-8" standalone="no"?>
<svg
   xmlns:dc="http://purl.org/dc/elements/1.1/"
   xmlns:cc="http://creativecommons.org/ns#"
   xmlns:rdf="http://www.w3.org/1999/02/22-rdf-syntax-ns#"
   xmlns:svg="http://www.w3.org/2000/svg"
   xmlns="http://www.w3.org/2000/svg"
   viewBox="0 0 1056 816"
   height="816"
   width="1056"
   xml:space="preserve"
   version="1.1"
   id="svg2"><metadata
     id="metadata8"><rdf:RDF><cc:Work
         rdf:about=""><dc:format>image/svg+xml</dc:format><dc:type
           rdf:resource="http://purl.org/dc/dcmitype/StillImage" /></cc:Work></rdf:RDF></metadata><defs
     id="defs6"><clipPath
       id="clipPath16"
       clipPathUnits="userSpaceOnUse"><path
         id="path18"
         d="M 0,612 792,612 792,0 0,0 0,612 Z" /></clipPath></defs><g
     transform="matrix(1.3333333,0,0,-1.3333333,0,816)"
     id="g10"><g
       id="g12"><g
         clip-path="url(#clipPath16)"
         id="g14"><g
           transform="translate(209.6436,252.7012)"
           id="g20"><path
             id="path22"
             style="fill:#606163;fill-opacity:1;fill-rule:nonzero;stroke:none"
             d="m 0,0 c -4.463,-1.881 -8.972,-2.821 -13.524,-2.821 -7.178,0 -13.634,1.246 -19.367,3.739 -5.732,2.493 -10.569,5.931 -14.507,10.31 -3.941,4.374 -6.959,9.515 -9.06,15.423 -2.102,5.909 -3.152,12.278 -3.152,19.109 0,7 1.05,13.5 3.152,19.497 2.101,5.995 5.119,11.225 9.06,15.688 3.938,4.466 8.775,7.966 14.507,10.507 5.733,2.538 12.189,3.808 19.367,3.808 4.812,0 9.474,-0.724 13.985,-2.169 4.507,-1.443 8.577,-3.566 12.209,-6.367 3.633,-2.802 6.632,-6.258 8.995,-10.372 2.365,-4.116 3.808,-8.844 4.333,-14.182 l -19.695,0 c -1.226,5.251 -3.591,9.191 -7.091,11.817 -3.502,2.625 -7.746,3.94 -12.736,3.94 -4.639,0 -8.58,-0.899 -11.817,-2.694 -3.239,-1.794 -5.865,-4.2 -7.876,-7.218 -2.016,-3.023 -3.481,-6.456 -4.402,-10.31 -0.917,-3.851 -1.379,-7.836 -1.379,-11.945 0,-3.941 0.462,-7.772 1.379,-11.492 0.921,-3.722 2.386,-7.069 4.402,-10.046 2.011,-2.977 4.637,-5.361 7.876,-7.155 3.237,-1.794 7.178,-2.689 11.817,-2.689 6.828,0 12.099,1.726 15.823,5.186 3.719,3.457 5.886,8.466 6.499,15.032 l -20.747,0 0,15.364 39.39,0 0,-50.682 -13.127,0 -2.103,10.634 C 8.534,5.187 4.465,1.881 0,0" /></g><g
           transform="translate(261.6538,319.8574)"
           id="g24"><path
             id="path26"
             style="fill:#606163;fill-opacity:1;fill-rule:nonzero;stroke:none"
             d="m 0,0 0,-12.604 0.262,0 c 0.875,2.1 2.057,4.048 3.546,5.842 1.488,1.792 3.193,3.326 5.121,4.595 1.924,1.27 3.983,2.254 6.17,2.955 2.188,0.698 4.466,1.05 6.829,1.05 1.226,0 2.582,-0.219 4.07,-0.657 l 0,-19.669 c -0.876,0.174 -1.927,0.329 -3.15,0.461 -1.228,0.128 -2.411,0.196 -3.548,0.196 -3.411,0 -6.301,-0.57 -8.666,-1.707 C 8.273,-20.676 6.369,-22.228 4.924,-24.2 3.479,-26.168 2.45,-28.465 1.84,-31.095 1.224,-33.72 0.917,-36.564 0.917,-39.629 l 0,-28.253 -18.642,0 0,67.882 L 0,0 Z" /></g><g
           transform="translate(332.1123,285.1963)"
           id="g28"><path
             id="path30"
             style="fill:#606163;fill-opacity:1;fill-rule:nonzero;stroke:none"
             d="m 0,0 c -0.788,-0.703 -1.774,-1.251 -2.954,-1.644 -1.18,-0.392 -2.452,-0.72 -3.808,-0.986 -1.358,-0.26 -2.779,-0.479 -4.267,-0.652 -1.489,-0.179 -2.977,-0.398 -4.465,-0.658 -1.4,-0.265 -2.778,-0.612 -4.135,-1.05 -1.358,-0.439 -2.54,-1.032 -3.545,-1.772 -1.007,-0.744 -1.817,-1.689 -2.429,-2.826 -0.612,-1.137 -0.918,-2.58 -0.918,-4.333 0,-1.662 0.306,-3.063 0.918,-4.201 0.612,-1.137 1.443,-2.036 2.495,-2.689 1.05,-0.658 2.276,-1.119 3.675,-1.378 1.4,-0.266 2.843,-0.398 4.333,-0.398 3.679,0 6.521,0.611 8.537,1.84 2.011,1.224 3.497,2.694 4.463,4.396 0.961,1.708 1.552,3.439 1.774,5.188 C -0.112,-9.41 0,-8.013 0,-6.958 L 0,0 Z m -43.068,16.123 c 0.265,4.377 1.356,5.671 3.283,8.56 1.927,2.89 4.379,5.207 7.356,6.958 2.972,1.751 6.321,2.998 10.042,3.744 3.72,0.742 7.464,1.114 11.226,1.114 3.415,0 6.871,-0.242 10.373,-0.721 3.5,-0.482 6.699,-1.425 9.584,-2.822 2.891,-1.402 5.253,-3.349 7.091,-5.845 1.84,-2.492 2.758,-5.798 2.758,-9.911 l 0,-35.322 c 0,-3.064 0.173,-5.994 0.525,-8.798 0.35,-2.799 0.963,-4.899 1.84,-6.301 l -18.907,0 c -0.352,1.05 -0.637,2.123 -0.854,3.219 -0.219,1.091 -0.374,2.21 -0.461,3.347 -2.977,-3.064 -6.479,-5.21 -10.504,-6.434 -4.027,-1.224 -8.139,-1.84 -12.342,-1.84 -3.239,0 -6.259,0.398 -9.061,1.183 -2.801,0.79 -5.251,2.014 -7.351,3.676 -2.1,1.662 -3.744,3.761 -4.924,6.305 -1.181,2.534 -1.774,5.557 -1.774,9.059 0,3.849 0.678,7.022 2.036,9.519 1.357,2.494 3.105,4.484 5.251,5.973 2.146,1.488 4.598,2.603 7.354,3.347 2.757,0.744 5.536,1.338 8.339,1.776 2.799,0.434 5.557,0.785 8.269,1.05 2.712,0.26 5.123,0.657 7.223,1.183 2.1,0.525 3.762,1.287 4.991,2.296 1.224,1.004 1.792,2.47 1.705,4.397 0,2.014 -0.326,3.611 -0.984,4.793 -0.658,1.183 -1.534,2.101 -2.625,2.758 -1.096,0.655 -2.366,1.091 -3.808,1.31 -1.445,0.22 -3,0.329 -4.662,0.329 -3.675,0 -6.566,-0.785 -8.666,-2.36 -2.1,-1.578 -3.329,-1.863 -3.675,-5.542 l -18.648,0 z" /></g><g
           transform="translate(402.749,294.1865)"
           id="g32"><path
             id="path34"
             style="fill:#606163;fill-opacity:1;fill-rule:nonzero;stroke:none"
             d="m 0,0 c -0.525,2.585 -1.422,4.858 -2.689,6.831 -1.269,1.968 -2.914,3.565 -4.924,4.791 -2.016,1.226 -4.553,1.837 -7.616,1.837 -3.066,0 -5.646,-0.611 -7.747,-1.837 -2.1,-1.226 -3.787,-2.846 -5.054,-4.859 -1.269,-2.014 -2.192,-4.311 -2.758,-6.891 -0.57,-2.584 -0.854,-5.277 -0.854,-8.076 0,-2.626 0.307,-5.251 0.918,-7.877 0.612,-2.625 1.598,-4.972 2.954,-7.026 1.356,-2.055 3.064,-3.722 5.124,-4.992 2.054,-1.268 4.529,-1.898 7.417,-1.898 3.063,0 5.623,0.606 7.682,1.835 2.054,1.224 3.695,2.867 4.922,4.922 1.226,2.059 2.1,4.401 2.625,7.027 0.527,2.625 0.79,5.337 0.79,8.141 C 0.79,-5.273 0.527,-2.579 0,0 m 0.79,-33.545 c -2.189,-3.676 -5.055,-6.324 -8.602,-7.945 -3.543,-1.616 -7.547,-2.429 -12.013,-2.429 -5.077,0 -9.543,0.986 -13.392,2.954 -3.853,1.973 -7.027,4.639 -9.52,8.009 -2.495,3.369 -4.378,7.246 -5.645,11.62 -1.272,4.379 -1.905,8.931 -1.905,13.656 0,4.553 0.633,8.95 1.905,13.196 1.267,4.245 3.15,7.987 5.645,11.226 2.493,3.237 5.623,5.845 9.388,7.813 3.762,1.97 8.141,2.954 13.131,2.954 4.023,0 7.854,-0.854 11.488,-2.559 3.63,-1.708 6.5,-4.226 8.6,-7.55 l 0.263,0 0,53.585 18.644,0 0,-113.196 -17.724,0 0,8.666 -0.263,0 z" /></g><g
           transform="translate(427.7295,306.1904)"
           id="g36"><path
             id="path38"
             style="fill:#606163;fill-opacity:1;fill-rule:nonzero;stroke:none"
             d="m 0,0 c -0.482,-0.16 -0.979,-0.238 -1.476,-0.238 l 0,-53.977 18.643,0 0,59.925 L 0,0 Z" /></g><g
           transform="translate(490.7891,303.9707)"
           id="g40"><path
             id="path42"
             style="fill:#606163;fill-opacity:1;fill-rule:nonzero;stroke:none"
             d="m 0,0 c -2.233,2.449 -5.628,3.675 -10.178,3.675 -2.976,0 -5.449,-0.502 -7.42,-1.508 -1.967,-1.007 -3.543,-2.254 -4.725,-3.741 -1.183,-1.489 -2.014,-3.069 -2.495,-4.726 -0.482,-1.667 -0.767,-3.155 -0.852,-4.466 l 30.329,0 C 3.785,-6.04 2.23,-2.451 0,0 m -21.076,-35.714 c 2.801,-2.712 6.828,-4.067 12.081,-4.067 3.763,0 7,0.935 9.716,2.821 2.713,1.881 4.375,3.872 4.988,5.972 l 16.412,0 c -2.625,-8.141 -6.652,-13.962 -12.078,-17.46 -5.427,-3.502 -11.993,-5.255 -19.695,-5.255 -5.34,0 -10.155,0.853 -14.443,2.561 -4.292,1.708 -7.924,4.137 -10.898,7.288 -2.978,3.15 -5.274,6.913 -6.895,11.291 -1.621,4.378 -2.428,9.191 -2.428,14.442 0,5.077 0.83,9.803 2.495,14.182 1.662,4.377 4.024,8.162 7.091,11.358 3.061,3.192 6.715,5.712 10.964,7.548 4.242,1.84 8.948,2.758 14.114,2.758 5.775,0 10.809,-1.115 15.099,-3.347 4.287,-2.233 7.812,-5.232 10.57,-8.995 2.757,-3.765 4.749,-8.053 5.974,-12.865 1.227,-4.818 1.662,-9.849 1.313,-15.1 l -48.974,0 c 0.261,-6.041 1.792,-10.419 4.594,-13.132" /></g><g
           transform="translate(573.9658,314.0156)"
           id="g44"><path
             id="path46"
             style="fill:#606163;fill-opacity:1;fill-rule:nonzero;stroke:none"
             d="m 0,0 c -1.84,2.406 -4.355,4.287 -7.552,5.646 -1.336,0.566 -2.837,1.007 -4.484,1.337 l -3.518,-1.17 C -15.557,5.812 -15.56,5.81 -15.563,5.809 l -24.108,-8.02 c -0.31,-0.452 -0.611,-0.917 -0.901,-1.401 l -0.396,0 0,0.969 -15.578,-5.182 c -0.482,-0.16 -0.979,-0.238 -1.475,-0.238 -0.226,0 -0.451,0.02 -0.673,0.052 l 0,-54.029 18.646,0 0,35.582 c 0,6.912 1.137,11.885 3.413,14.902 2.277,3.022 5.952,4.531 11.03,4.531 4.465,0 7.57,-1.379 9.323,-4.137 1.749,-2.754 2.626,-6.937 2.626,-12.538 l 0,-38.34 18.644,0 0,41.755 c 0,4.2 -0.372,8.026 -1.116,11.486 C 3.128,-5.342 1.835,-2.411 0,0" /></g><g
           transform="translate(598.9756,268.8457)"
           id="g48"><path
             id="path50"
             style="fill:#606163;fill-opacity:1;fill-rule:nonzero;stroke:none"
             d="m 0,0 c 0.831,-1.442 1.904,-2.625 3.217,-3.543 1.314,-0.917 2.824,-1.598 4.529,-2.036 1.708,-0.439 3.48,-0.657 5.319,-0.657 1.313,0 2.692,0.155 4.137,0.461 1.443,0.305 2.756,0.79 3.938,1.443 1.18,0.657 2.167,1.533 2.955,2.63 0.787,1.091 1.179,2.47 1.179,4.132 0,2.803 -1.858,4.903 -5.579,6.305 -3.721,1.397 -8.908,2.799 -15.558,4.201 -2.715,0.612 -5.363,1.333 -7.945,2.164 -2.582,0.831 -4.879,1.926 -6.892,3.283 -2.014,1.356 -3.635,3.063 -4.859,5.123 -1.227,2.055 -1.839,4.57 -1.839,7.547 0,4.378 0.853,7.967 2.561,10.768 1.708,2.801 3.959,5.011 6.762,6.632 2.799,1.616 5.952,2.757 9.454,3.413 3.5,0.655 7.091,0.984 10.767,0.984 3.677,0 7.243,-0.352 10.7,-1.051 3.458,-0.7 6.543,-1.883 9.259,-3.543 2.712,-1.666 4.965,-3.876 6.76,-6.631 1.792,-2.758 2.864,-6.237 3.216,-10.439 l -17.725,0 c -0.261,3.588 -1.621,6.016 -4.07,7.286 -2.452,1.269 -5.34,1.903 -8.666,1.903 -1.05,0 -2.189,-0.063 -3.413,-0.196 C 6.979,40.047 5.865,39.764 4.858,39.325 3.852,38.887 2.997,38.252 2.299,37.421 1.596,36.59 1.249,35.472 1.249,34.076 c 0,-1.667 0.611,-3.023 1.835,-4.073 1.227,-1.05 2.826,-1.904 4.794,-2.557 1.969,-0.657 4.224,-1.251 6.763,-1.776 2.538,-0.525 5.12,-1.096 7.746,-1.703 2.714,-0.616 5.362,-1.361 7.944,-2.233 2.582,-0.877 4.879,-2.036 6.893,-3.479 2.013,-1.447 3.631,-3.241 4.857,-5.383 1.227,-2.146 1.841,-4.795 1.841,-7.945 0,-4.465 -0.9,-8.209 -2.694,-11.228 -1.794,-3.017 -4.135,-5.447 -7.023,-7.287 -2.89,-1.84 -6.195,-3.132 -9.915,-3.871 -3.721,-0.745 -7.506,-1.119 -11.357,-1.119 -3.938,0 -7.791,0.397 -11.554,1.182 -3.765,0.791 -7.111,2.101 -10.045,3.941 -2.934,1.835 -5.34,4.265 -7.221,7.287 -1.884,3.018 -2.911,6.803 -3.087,11.356 l 17.727,0 C -1.247,3.174 -0.833,1.448 0,0" /></g><g
           transform="translate(426.2539,337.9043)"
           id="g52"><path
             id="path54"
             style="fill:#2a57a5;fill-opacity:1;fill-rule:nonzero;stroke:none"
             d="M 0,0 40.986,-13.643 0,-27.277 0,0 Z" /></g><g
           transform="translate(467.2402,324.2612)"
           id="g56"><path
             id="path58"
             style="fill:#006db5;fill-opacity:1;fill-rule:nonzero;stroke:none"
             d="M 0,0 -40.986,13.643 0,27.277 0,0 Z" /></g><g
           transform="translate(467.2402,351.5381)"
           id="g60"><path
             id="path62"
             style="fill:#00bbf2;fill-opacity:1;fill-rule:nonzero;stroke:none"
             d="M 0,0 -40.986,13.638 0,27.27 0,0 Z" /></g><g
           transform="translate(426.2539,392.4487)"
           id="g64"><path
             id="path66"
             style="fill:#4fc9f5;fill-opacity:1;fill-rule:nonzero;stroke:none"
             d="M 0,0 40.986,-13.641 0,-27.272 0,0 Z" /></g><g
           transform="translate(467.2402,351.5381)"
           id="g68"><path
             id="path70"
             style="fill:#0082c7;fill-opacity:1;fill-rule:nonzero;stroke:none"
             d="M 0,0 40.977,-13.634 0,-27.277 0,0 Z" /></g><g
           transform="translate(508.2168,337.9043)"
           id="g72"><path
             id="path74"
             style="fill:#0098db;fill-opacity:1;fill-rule:nonzero;stroke:none"
             d="M 0,0 -40.977,13.634 0,27.272 0,0 Z" /></g><g
           transform="translate(467.2402,378.8081)"
           id="g76"><path
             id="path78"
             style="fill:#00b0f0;fill-opacity:1;fill-rule:nonzero;stroke:none"
             d="M 0,0 40.977,-13.632 0,-27.27 0,0 Z" /></g><g
           transform="translate(515.9443,337.9043)"
           id="g80"><path
             id="path82"
             style="fill:#2a57a5;fill-opacity:1;fill-rule:nonzero;stroke:none"
             d="M 0,0 40.983,-13.643 0,-27.277 0,0 Z" /></g><g
           transform="translate(556.9277,324.2612)"
           id="g84"><path
             id="path86"
             style="fill:#006db5;fill-opacity:1;fill-rule:nonzero;stroke:none"
             d="M 0,0 -40.983,13.643 0,27.277 0,0 Z" /></g><g
           transform="translate(556.9277,351.5381)"
           id="g88"><path
             id="path90"
             style="fill:#00bbf2;fill-opacity:1;fill-rule:nonzero;stroke:none"
             d="M 0,0 -40.983,13.638 0,27.27 0,0 Z" /></g><g
           transform="translate(515.9443,392.4487)"
           id="g92"><path
             id="path94"
             style="fill:#4fc9f5;fill-opacity:1;fill-rule:nonzero;stroke:none"
             d="M 0,0 40.983,-13.641 0,-27.272 0,0 Z" /></g><g
           transform="translate(556.9277,351.5381)"
           id="g96"><path
             id="path98"
             style="fill:#0082c7;fill-opacity:1;fill-rule:nonzero;stroke:none"
             d="M 0,0 40.986,-13.634 0,-27.277 0,0 Z" /></g><g
           transform="translate(597.9141,337.9043)"
           id="g100"><path
             id="path102"
             style="fill:#0098db;fill-opacity:1;fill-rule:nonzero;stroke:none"
             d="M 0,0 -40.986,13.634 0,27.272 0,0 Z" /></g><g
           transform="translate(556.9277,378.8081)"
           id="g104"><path
             id="path106"
             style="fill:#00b0f0;fill-opacity:1;fill-rule:nonzero;stroke:none"
             d="M 0,0 40.986,-13.632 0,-27.27 0,0 Z" /></g><g
           transform="translate(150.666,223.0049)"
           id="g108"><path
             id="path110"
             style="fill:#606163;fill-opacity:1;fill-rule:nonzero;stroke:none"
             d="m 0,0 c 1.059,-0.681 2.589,-1.201 4.223,-1.201 2.427,0 3.847,1.283 3.847,3.137 0,1.689 -0.984,2.698 -3.466,3.629 -3.001,1.092 -4.853,2.671 -4.853,5.238 0,2.858 2.372,4.99 5.945,4.99 1.856,0 3.248,-0.434 4.038,-0.899 L 9.082,12.953 c -0.576,0.357 -1.804,0.872 -3.466,0.872 -2.509,0 -3.463,-1.493 -3.463,-2.749 0,-1.721 1.116,-2.57 3.655,-3.547 3.109,-1.201 4.661,-2.703 4.661,-5.402 0,-2.84 -2.073,-5.319 -6.41,-5.319 -1.774,0 -3.707,0.544 -4.692,1.201 L 0,0 Z" /></g><g
           transform="translate(168.7192,226.6895)"
           id="g112"><path
             id="path114"
             style="fill:#606163;fill-opacity:1;fill-rule:nonzero;stroke:none"
             d="m 0,0 c 0,-2.895 1.635,-5.077 3.981,-5.077 2.293,0 4.01,2.155 4.01,5.127 C 7.991,2.287 6.872,5.1 4.039,5.1 1.229,5.1 0,2.483 0,0 m 10.445,0.137 c 0,-4.886 -3.409,-7.014 -6.57,-7.014 -3.548,0 -6.327,2.617 -6.327,6.79 0,4.393 2.918,6.985 6.545,6.985 3.792,0 6.352,-2.752 6.352,-6.761" /></g><path
           id="path116"
           style="fill:#606163;fill-opacity:1;fill-rule:nonzero;stroke:none"
           d="m 184.926,239.479 2.399,0 0,-19.369 -2.399,0 0,19.369 z" /><g
           transform="translate(205.1372,223.7393)"
           id="g118"><path
             id="path120"
             style="fill:#606163;fill-opacity:1;fill-rule:nonzero;stroke:none"
             d="m 0,0 c 0,-1.393 0.025,-2.589 0.107,-3.63 l -2.125,0 -0.137,2.155 -0.055,0 c -0.603,-1.063 -2.018,-2.452 -4.365,-2.452 -2.071,0 -4.554,1.174 -4.554,5.781 l 0,7.716 2.401,0 0,-7.278 c 0,-2.511 0.792,-4.228 2.943,-4.228 1.612,0 2.73,1.115 3.166,2.21 0.135,0.325 0.217,0.763 0.217,1.229 l 0,8.067 L 0,9.57 0,0 Z" /></g><g
           transform="translate(221.2593,220.5752)"
           id="g122"><path
             id="path124"
             style="fill:#606163;fill-opacity:1;fill-rule:nonzero;stroke:none"
             d="m 0,0 c -0.628,-0.297 -2.018,-0.763 -3.794,-0.763 -3.982,0 -6.571,2.7 -6.571,6.741 0,4.063 2.781,7.035 7.091,7.035 1.42,0 2.676,-0.356 3.329,-0.712 L -0.493,10.479 C -1.064,10.78 -1.966,11.1 -3.274,11.1 -6.301,11.1 -7.94,8.84 -7.94,6.114 c 0,-3.059 1.963,-4.94 4.584,-4.94 1.365,0 2.265,0.329 2.945,0.625 L 0,0 Z" /></g><path
           id="path126"
           style="fill:#606163;fill-opacity:1;fill-rule:nonzero;stroke:none"
           d="m 226.802,233.31 2.399,0 0,-13.2 -2.399,0 0,13.2 z m 2.671,3.716 c 0,-0.821 -0.571,-1.474 -1.527,-1.474 -0.874,0 -1.445,0.653 -1.445,1.474 0,0.818 0.598,1.494 1.498,1.494 0.876,0 1.474,-0.654 1.474,-1.494" /><g
           transform="translate(237.4087,226.6895)"
           id="g128"><path
             id="path130"
             style="fill:#606163;fill-opacity:1;fill-rule:nonzero;stroke:none"
             d="m 0,0 c 0,-2.895 1.635,-5.077 3.981,-5.077 2.295,0 4.012,2.155 4.012,5.127 C 7.993,2.287 6.874,5.1 4.041,5.1 1.229,5.1 0,2.483 0,0 m 10.447,0.137 c 0,-4.886 -3.408,-7.014 -6.572,-7.014 -3.546,0 -6.327,2.617 -6.327,6.79 0,4.393 2.918,6.985 6.543,6.985 3.794,0 6.356,-2.752 6.356,-6.761" /></g><g
           transform="translate(253.6177,229.7393)"
           id="g132"><path
             id="path134"
             style="fill:#606163;fill-opacity:1;fill-rule:nonzero;stroke:none"
             d="m 0,0 c 0,1.393 -0.03,2.483 -0.109,3.57 l 2.127,0 0.132,-2.177 0.056,0 c 0.655,1.228 2.182,2.456 4.364,2.456 1.827,0 4.667,-1.091 4.667,-5.62 l 0,-7.859 -2.402,0 0,7.611 C 8.835,0.109 8.045,1.886 5.78,1.886 4.228,1.886 2.998,0.767 2.562,-0.566 2.454,-0.867 2.399,-1.283 2.399,-1.689 l 0,-7.941 L 0,-9.63 0,0 Z" /></g><g
           transform="translate(279.8579,227.9902)"
           id="g136"><path
             id="path138"
             style="fill:#606163;fill-opacity:1;fill-rule:nonzero;stroke:none"
             d="M 0,0 C 0.025,1.503 -0.63,3.877 -3.331,3.877 -5.785,3.877 -6.821,1.672 -7.011,0 L 0,0 Z m -7.041,-1.712 c 0.06,-3.246 2.101,-4.584 4.53,-4.584 1.717,0 2.783,0.301 3.655,0.68 L 1.58,-7.332 c -0.845,-0.38 -2.32,-0.846 -4.42,-0.846 -4.064,0 -6.488,2.699 -6.488,6.681 0,3.985 2.347,7.095 6.191,7.095 4.338,0 5.456,-3.767 5.456,-6.196 0,-0.488 -0.029,-0.84 -0.086,-1.114 l -9.274,0 z" /></g><g
           transform="translate(287.5493,222.5391)"
           id="g140"><path
             id="path142"
             style="fill:#606163;fill-opacity:1;fill-rule:nonzero;stroke:none"
             d="m 0,0 c 0.735,-0.434 1.991,-0.927 3.189,-0.927 1.722,0 2.537,0.845 2.537,1.963 0,1.151 -0.681,1.749 -2.427,2.402 -2.4,0.872 -3.518,2.16 -3.518,3.735 0,2.132 1.746,3.876 4.554,3.876 1.336,0 2.511,-0.356 3.219,-0.821 L 6.983,8.479 C 6.463,8.816 5.509,9.273 4.28,9.273 2.865,9.273 2.098,8.456 2.098,7.475 2.098,6.388 2.865,5.895 4.582,5.209 6.846,4.365 8.047,3.214 8.047,1.256 c 0,-2.348 -1.826,-3.983 -4.91,-3.983 -1.446,0 -2.783,0.38 -3.71,0.928 L 0,0 Z" /></g><g
           transform="translate(319.0288,227.748)"
           id="g144"><path
             id="path146"
             style="fill:#606163;fill-opacity:1;fill-rule:nonzero;stroke:none"
             d="m 0,0 -1.829,5.292 c -0.406,1.206 -0.678,2.297 -0.952,3.356 l -0.059,0 C -3.109,7.589 -3.381,6.434 -3.762,5.319 L -5.563,0 0,0 Z m -6.052,-1.857 -1.911,-5.782 -2.454,0 6.271,18.383 2.835,0 6.274,-18.383 -2.534,0 -1.963,5.782 -6.518,0 z" /></g><g
           transform="translate(329.2607,229.7393)"
           id="g148"><path
             id="path150"
             style="fill:#606163;fill-opacity:1;fill-rule:nonzero;stroke:none"
             d="m 0,0 c 0,1.393 -0.027,2.483 -0.109,3.57 l 2.128,0 0.136,-2.177 0.053,0 c 0.655,1.228 2.183,2.456 4.367,2.456 1.826,0 4.662,-1.091 4.662,-5.62 l 0,-7.859 -2.4,0 0,7.611 C 8.837,0.109 8.045,1.886 5.781,1.886 4.229,1.886 3,0.767 2.562,-0.566 2.457,-0.867 2.402,-1.283 2.402,-1.689 l 0,-7.941 L 0,-9.63 0,0 Z" /></g><g
           transform="translate(354.0811,226.8486)"
           id="g152"><path
             id="path154"
             style="fill:#606163;fill-opacity:1;fill-rule:nonzero;stroke:none"
             d="m 0,0 c -2.618,0.056 -5.591,-0.406 -5.591,-2.972 0,-1.585 1.039,-2.292 2.237,-2.292 1.747,0 2.866,1.091 3.245,2.21 C -0.027,-2.78 0,-2.511 0,-2.287 L 0,0 Z m 2.32,-3.574 c 0,-1.142 0.055,-2.261 0.191,-3.165 l -2.155,0 -0.189,1.667 -0.084,0 c -0.736,-1.036 -2.153,-1.964 -4.037,-1.964 -2.671,0 -4.034,1.882 -4.034,3.79 0,3.191 2.836,4.94 7.933,4.908 l 0,0.278 c 0,1.06 -0.299,3.055 -3,3.024 -1.255,0 -2.536,-0.352 -3.461,-0.978 l -0.547,1.603 c 1.091,0.685 2.698,1.15 4.365,1.15 4.036,0 5.018,-2.753 5.018,-5.374 l 0,-4.939 z" /></g><path
           id="path156"
           style="fill:#606163;fill-opacity:1;fill-rule:nonzero;stroke:none"
           d="m 363.008,239.479 2.397,0 0,-19.369 -2.397,0 0,19.369 z" /><path
           id="path158"
           style="fill:#606163;fill-opacity:1;fill-rule:nonzero;stroke:none"
           d="m 372.169,233.31 2.402,0 0,-13.2 -2.402,0 0,13.2 z m 4.883,5.703 -3.328,-3.895 -1.69,0 2.398,3.895 2.62,0 z" /><g
           transform="translate(384.1748,236.4785)"
           id="g160"><path
             id="path162"
             style="fill:#606163;fill-opacity:1;fill-rule:nonzero;stroke:none"
             d="m 0,0 0,-3.169 3.436,0 0,-1.821 -3.436,0 0,-7.118 c 0,-1.64 0.466,-2.567 1.799,-2.567 0.656,0 1.037,0.05 1.393,0.16 l 0.105,-1.822 c -0.461,-0.164 -1.196,-0.329 -2.126,-0.329 -1.118,0 -2.015,0.38 -2.591,1.01 -0.655,0.735 -0.927,1.908 -0.927,3.461 l 0,7.205 -2.045,0 0,1.821 2.045,0 0,2.461 L 0,0 Z" /></g><path
           id="path164"
           style="fill:#606163;fill-opacity:1;fill-rule:nonzero;stroke:none"
           d="m 393.042,233.31 2.399,0 0,-13.2 -2.399,0 0,13.2 z m 2.671,3.716 c 0,-0.821 -0.57,-1.474 -1.527,-1.474 -0.87,0 -1.445,0.653 -1.445,1.474 0,0.818 0.598,1.494 1.497,1.494 0.875,0 1.475,-0.654 1.475,-1.494" /><g
           transform="translate(411.5566,220.5752)"
           id="g166"><path
             id="path168"
             style="fill:#606163;fill-opacity:1;fill-rule:nonzero;stroke:none"
             d="m 0,0 c -0.621,-0.297 -2.014,-0.763 -3.789,-0.763 -3.982,0 -6.571,2.7 -6.571,6.741 0,4.063 2.781,7.035 7.093,7.035 1.415,0 2.669,-0.356 3.327,-0.712 l -0.548,-1.822 c -0.569,0.301 -1.471,0.621 -2.779,0.621 -3.027,0 -4.669,-2.26 -4.669,-4.986 0,-3.059 1.964,-4.94 4.582,-4.94 1.368,0 2.267,0.329 2.948,0.625 L 0,0 Z" /></g><g
           transform="translate(424.0557,226.8486)"
           id="g170"><path
             id="path172"
             style="fill:#606163;fill-opacity:1;fill-rule:nonzero;stroke:none"
             d="m 0,0 c -2.618,0.056 -5.593,-0.406 -5.593,-2.972 0,-1.585 1.034,-2.292 2.238,-2.292 1.744,0 2.862,1.091 3.241,2.21 C -0.029,-2.78 0,-2.511 0,-2.287 L 0,0 Z m 2.317,-3.574 c 0,-1.142 0.051,-2.261 0.188,-3.165 l -2.155,0 -0.188,1.667 -0.082,0 c -0.739,-1.036 -2.155,-1.964 -4.036,-1.964 -2.676,0 -4.036,1.882 -4.036,3.79 0,3.191 2.835,4.94 7.935,4.908 l 0,0.278 c 0,1.06 -0.301,3.055 -2.998,3.024 -1.258,0 -2.538,-0.352 -3.463,-0.978 L -7.07,5.589 c 1.095,0.685 2.708,1.15 4.365,1.15 4.041,0 5.022,-2.753 5.022,-5.374 l 0,-4.939 z" /></g><g
           transform="translate(432.6465,222.5391)"
           id="g174"><path
             id="path176"
             style="fill:#606163;fill-opacity:1;fill-rule:nonzero;stroke:none"
             d="m 0,0 c 0.74,-0.434 1.995,-0.927 3.191,-0.927 1.722,0 2.539,0.845 2.539,1.963 0,1.151 -0.68,1.749 -2.424,2.402 -2.407,0.872 -3.521,2.16 -3.521,3.735 0,2.132 1.744,3.876 4.553,3.876 1.338,0 2.509,-0.356 3.219,-0.821 L 6.981,8.479 C 6.468,8.816 5.512,9.273 4.287,9.273 2.867,9.273 2.105,8.456 2.105,7.475 2.105,6.388 2.867,5.895 4.589,5.209 6.847,4.365 8.05,3.214 8.05,1.256 c 0,-2.348 -1.826,-3.983 -4.908,-3.983 -1.448,0 -2.781,0.38 -3.715,0.928 L 0,0 Z" /></g><g
           transform="translate(464.5898,228.7344)"
           id="g178"><path
             id="path180"
             style="fill:#606163;fill-opacity:1;fill-rule:nonzero;stroke:none"
             d="m 0,0 -7.118,0 0,-6.629 7.963,0 0,-1.996 -10.361,0 0,18.383 9.954,0 0,-1.987 -7.556,0 0,-5.812 L 0,1.959 0,0 Z" /></g><g
           transform="translate(471.1689,229.7393)"
           id="g182"><path
             id="path184"
             style="fill:#606163;fill-opacity:1;fill-rule:nonzero;stroke:none"
             d="m 0,0 c 0,1.393 -0.057,2.483 -0.114,3.57 l 2.102,0 0.108,-2.145 0.087,0 c 0.73,1.256 1.963,2.424 4.173,2.424 1.772,0 3.132,-1.091 3.706,-2.648 l 0.056,0 c 0.406,0.767 0.95,1.306 1.502,1.721 0.785,0.599 1.63,0.927 2.891,0.927 1.773,0 4.365,-1.151 4.365,-5.726 l 0,-7.753 -2.35,0 0,7.447 c 0,2.567 -0.956,4.069 -2.86,4.069 -1.395,0 -2.434,-1.009 -2.867,-2.16 -0.111,-0.352 -0.188,-0.758 -0.188,-1.196 l 0,-8.16 -2.346,0 0,7.913 C 8.265,0.384 7.333,1.886 5.509,1.886 4.036,1.886 2.913,0.685 2.534,-0.521 2.397,-0.84 2.34,-1.283 2.34,-1.689 L 2.34,-9.63 0,-9.63 0,0 Z" /></g><g
           transform="translate(499.0186,225.4834)"
           id="g186"><path
             id="path188"
             style="fill:#606163;fill-opacity:1;fill-rule:nonzero;stroke:none"
             d="m 0,0 c 0,-0.352 0.03,-0.68 0.107,-0.977 0.439,-1.667 1.884,-2.812 3.603,-2.812 2.539,0 4.012,2.073 4.012,5.1 0,2.621 -1.396,4.88 -3.93,4.88 -1.637,0 -3.191,-1.14 -3.625,-2.94 C 0.08,2.95 0,2.594 0,2.293 L 0,0 Z m -2.374,3.521 c 0,1.689 -0.057,3.054 -0.107,4.305 l 2.126,0 0.133,-2.255 0.06,0 c 0.95,1.607 2.532,2.533 4.691,2.533 3.213,0 5.617,-2.698 5.617,-6.683 0,-4.749 -2.916,-7.092 -6.03,-7.092 -1.746,0 -3.271,0.763 -4.063,2.073 l -0.053,0 0,-7.173 -2.374,0 0,14.292 z" /></g><g
           transform="translate(514.8945,229.2002)"
           id="g190"><path
             id="path192"
             style="fill:#606163;fill-opacity:1;fill-rule:nonzero;stroke:none"
             d="m 0,0 c 0,1.553 -0.029,2.882 -0.107,4.109 l 2.095,0 0.115,-2.616 0.082,0 c 0.598,1.772 2.073,2.895 3.682,2.895 0.244,0 0.436,-0.028 0.651,-0.059 l 0,-2.261 C 6.275,2.123 6.031,2.123 5.7,2.123 4.007,2.123 2.811,0.868 2.483,-0.931 2.427,-1.255 2.404,-1.666 2.404,-2.05 l 0,-7.041 L 0,-9.091 0,0 Z" /></g><g
           transform="translate(534.6465,227.9902)"
           id="g194"><path
             id="path196"
             style="fill:#606163;fill-opacity:1;fill-rule:nonzero;stroke:none"
             d="M 0,0 C 0.027,1.503 -0.628,3.877 -3.326,3.877 -5.78,3.877 -6.819,1.672 -7.011,0 L 0,0 Z m -7.038,-1.712 c 0.055,-3.246 2.1,-4.584 4.529,-4.584 1.717,0 2.78,0.301 3.653,0.68 l 0.438,-1.716 c -0.847,-0.38 -2.319,-0.846 -4.42,-0.846 -4.065,0 -6.492,2.699 -6.492,6.681 0,3.985 2.347,7.095 6.195,7.095 4.338,0 5.452,-3.767 5.452,-6.196 0,-0.488 -0.03,-0.84 -0.078,-1.114 l -9.277,0 z" /></g><g
           transform="translate(542.3379,222.5391)"
           id="g198"><path
             id="path200"
             style="fill:#606163;fill-opacity:1;fill-rule:nonzero;stroke:none"
             d="m 0,0 c 0.735,-0.434 1.993,-0.927 3.191,-0.927 1.722,0 2.537,0.845 2.537,1.963 0,1.151 -0.678,1.749 -2.424,2.402 -2.405,0.872 -3.521,2.16 -3.521,3.735 0,2.132 1.746,3.876 4.552,3.876 1.336,0 2.509,-0.356 3.217,-0.821 L 6.981,8.479 C 6.465,8.816 5.507,9.273 4.283,9.273 2.867,9.273 2.101,8.456 2.101,7.475 c 0,-1.087 0.766,-1.58 2.483,-2.266 2.26,-0.844 3.463,-1.995 3.463,-3.953 0,-2.348 -1.823,-3.983 -4.908,-3.983 -1.446,0 -2.783,0.38 -3.712,0.928 L 0,0 Z" /></g><g
           transform="translate(563.1543,226.8486)"
           id="g202"><path
             id="path204"
             style="fill:#606163;fill-opacity:1;fill-rule:nonzero;stroke:none"
             d="m 0,0 c -2.619,0.056 -5.594,-0.406 -5.594,-2.972 0,-1.585 1.036,-2.292 2.238,-2.292 1.746,0 2.862,1.091 3.242,2.21 C -0.028,-2.78 0,-2.511 0,-2.287 L 0,0 Z m 2.319,-3.574 c 0,-1.142 0.05,-2.261 0.185,-3.165 l -2.152,0 -0.188,1.667 -0.085,0 c -0.735,-1.036 -2.155,-1.964 -4.038,-1.964 -2.671,0 -4.034,1.882 -4.034,3.79 0,3.191 2.835,4.94 7.937,4.908 l 0,0.278 c 0,1.06 -0.303,3.055 -2.999,3.024 -1.26,0 -2.539,-0.352 -3.464,-0.978 l -0.549,1.603 c 1.093,0.685 2.703,1.15 4.365,1.15 4.043,0 5.022,-2.753 5.022,-5.374 l 0,-4.939 z" /></g><g
           transform="translate(572.0752,229.2002)"
           id="g206"><path
             id="path208"
             style="fill:#606163;fill-opacity:1;fill-rule:nonzero;stroke:none"
             d="m 0,0 c 0,1.553 -0.031,2.882 -0.109,4.109 l 2.098,0 0.112,-2.616 0.082,0 c 0.598,1.772 2.073,2.895 3.682,2.895 0.244,0 0.437,-0.028 0.654,-0.059 l 0,-2.261 C 6.274,2.123 6.027,2.123 5.701,2.123 4.007,2.123 2.809,0.868 2.481,-0.931 2.425,-1.255 2.402,-1.666 2.402,-2.05 l 0,-7.041 L 0,-9.091 0,0 Z" /></g><path
           id="path210"
           style="fill:#606163;fill-opacity:1;fill-rule:nonzero;stroke:none"
           d="m 583.833,233.31 2.399,0 0,-13.2 -2.399,0 0,13.2 z m 2.671,3.716 c 0,-0.821 -0.57,-1.474 -1.525,-1.474 -0.873,0 -1.443,0.653 -1.443,1.474 0,0.818 0.594,1.494 1.497,1.494 0.87,0 1.471,-0.654 1.471,-1.494" /><g
           transform="translate(599.8955,226.8486)"
           id="g212"><path
             id="path214"
             style="fill:#606163;fill-opacity:1;fill-rule:nonzero;stroke:none"
             d="m 0,0 c -2.618,0.056 -5.589,-0.406 -5.589,-2.972 0,-1.585 1.039,-2.292 2.234,-2.292 1.746,0 2.869,1.091 3.251,2.21 C -0.027,-2.78 0,-2.511 0,-2.287 L 0,0 Z m 2.319,-3.574 c 0,-1.142 0.055,-2.261 0.193,-3.165 l -2.156,0 -0.192,1.667 -0.077,0 c -0.737,-1.036 -2.16,-1.964 -4.041,-1.964 -2.671,0 -4.036,1.882 -4.036,3.79 0,3.191 2.84,4.94 7.94,4.908 l 0,0.278 c 0,1.06 -0.302,3.055 -3.005,3.024 -1.251,0 -2.534,-0.352 -3.461,-0.978 l -0.546,1.603 c 1.09,0.685 2.7,1.15 4.364,1.15 4.036,0 5.017,-2.753 5.017,-5.374 l 0,-4.939 z" /></g><path
           id="path216"
           style="fill:#606163;fill-opacity:1;fill-rule:nonzero;stroke:none"
           d="m 608.817,239.479 2.404,0 0,-19.369 -2.404,0 0,19.369 z" /><g
           transform="translate(626.3555,227.9902)"
           id="g218"><path
             id="path220"
             style="fill:#606163;fill-opacity:1;fill-rule:nonzero;stroke:none"
             d="M 0,0 C 0.031,1.503 -0.626,3.877 -3.324,3.877 -5.778,3.877 -6.815,1.672 -7.009,0 L 0,0 Z m -7.037,-1.712 c 0.056,-3.246 2.103,-4.584 4.53,-4.584 1.717,0 2.78,0.301 3.654,0.68 l 0.437,-1.716 c -0.845,-0.38 -2.317,-0.846 -4.42,-0.846 -4.063,0 -6.49,2.699 -6.49,6.681 0,3.985 2.345,7.095 6.193,7.095 4.338,0 5.454,-3.767 5.454,-6.196 0,-0.488 -0.029,-0.84 -0.08,-1.114 l -9.278,0 z" /></g><g
           transform="translate(634.0488,222.5391)"
           id="g222"><path
             id="path224"
             style="fill:#606163;fill-opacity:1;fill-rule:nonzero;stroke:none"
             d="m 0,0 c 0.737,-0.434 1.995,-0.927 3.191,-0.927 1.721,0 2.538,0.845 2.538,1.963 0,1.151 -0.677,1.749 -2.423,2.402 -2.403,0.872 -3.521,2.16 -3.521,3.735 0,2.132 1.744,3.876 4.552,3.876 1.338,0 2.512,-0.356 3.22,-0.821 L 6.983,8.479 C 6.467,8.816 5.509,9.273 4.285,9.273 2.867,9.273 2.104,8.456 2.104,7.475 c 0,-1.087 0.763,-1.58 2.48,-2.266 2.265,-0.844 3.465,-1.995 3.465,-3.953 0,-2.348 -1.826,-3.983 -4.908,-3.983 -1.448,0 -2.786,0.38 -3.712,0.928 L 0,0 Z" /></g></g></g></g></svg>